<svg xmlns:dc="http://purl.org/dc/elements/1.1/" xmlns:cc="http://creativecommons.org/ns#" xmlns:rdf="http://www.w3.org/1999/02/22-rdf-syntax-ns#" xmlns:svg="http://www.w3.org/2000/svg" xmlns="http://www.w3.org/2000/svg" xmlns:xlink="http://www.w3.org/1999/xlink" xmlns:sodipodi="http://sodipodi.sourceforge.net/DTD/sodipodi-0.dtd" xmlns:inkscape="http://www.inkscape.org/namespaces/inkscape" id="svg3603" version="1.1" inkscape:version="0.48.5 r10040" sodipodi:docname="Documento nuevo 2" viewport="0 0 905px 1280px">
  <defs id="defs3605">
    <clipPath id="SVGID_2_">
      <use xlink:href="#SVGID_1_" overflow="visible" id="use15" style="overflow:visible" x="0" y="0" width="841.89001" height="1190.55"/>
    </clipPath>
    <clipPath id="SVGID_4_">
      <use xlink:href="#SVGID_3_" overflow="visible" id="use23" style="overflow:visible" x="0" y="0" width="841.89001" height="1190.55"/>
    </clipPath>
    <clipPath id="clipPath3276">
      <use xlink:href="#SVGID_3_" overflow="visible" id="use3278" style="overflow:visible" x="0" y="0" width="841.89001" height="1190.55"/>
    </clipPath>
    <clipPath id="clipPath3280">
      <use xlink:href="#SVGID_3_" overflow="visible" id="use3282" style="overflow:visible" x="0" y="0" width="841.89001" height="1190.55"/>
    </clipPath>
    <clipPath id="clipPath3284">
      <use xlink:href="#SVGID_3_" overflow="visible" id="use3286" style="overflow:visible" x="0" y="0" width="841.89001" height="1190.55"/>
    </clipPath>
    <clipPath id="clipPath3288">
      <use xlink:href="#SVGID_3_" overflow="visible" id="use3290" style="overflow:visible" x="0" y="0" width="841.89001" height="1190.55"/>
    </clipPath>
    <clipPath id="clipPath3292">
      <use xlink:href="#SVGID_3_" overflow="visible" id="use3294" style="overflow:visible" x="0" y="0" width="841.89001" height="1190.55"/>
    </clipPath>
    <clipPath id="clipPath3296">
      <use xlink:href="#SVGID_3_" overflow="visible" id="use3298" style="overflow:visible" x="0" y="0" width="841.89001" height="1190.55"/>
    </clipPath>
    <clipPath id="clipPath3300">
      <use xlink:href="#SVGID_3_" overflow="visible" id="use3302" style="overflow:visible" x="0" y="0" width="841.89001" height="1190.55"/>
    </clipPath>
    <clipPath id="clipPath3304">
      <use xlink:href="#SVGID_3_" overflow="visible" id="use3306" style="overflow:visible" x="0" y="0" width="841.89001" height="1190.55"/>
    </clipPath>
    <clipPath id="clipPath3308">
      <use xlink:href="#SVGID_3_" overflow="visible" id="use3310" style="overflow:visible" x="0" y="0" width="841.89001" height="1190.55"/>
    </clipPath>
    <clipPath id="clipPath3312">
      <use xlink:href="#SVGID_3_" overflow="visible" id="use3314" style="overflow:visible" x="0" y="0" width="841.89001" height="1190.55"/>
    </clipPath>
    <clipPath id="clipPath3316">
      <use xlink:href="#SVGID_3_" overflow="visible" id="use3318" style="overflow:visible" x="0" y="0" width="841.89001" height="1190.55"/>
    </clipPath>
    <clipPath id="clipPath3320">
      <use xlink:href="#SVGID_3_" overflow="visible" id="use3322" style="overflow:visible" x="0" y="0" width="841.89001" height="1190.55"/>
    </clipPath>
    <clipPath id="clipPath3324">
      <use xlink:href="#SVGID_3_" overflow="visible" id="use3326" style="overflow:visible" x="0" y="0" width="841.89001" height="1190.55"/>
    </clipPath>
    <clipPath id="clipPath3328">
      <use xlink:href="#SVGID_3_" overflow="visible" id="use3330" style="overflow:visible" x="0" y="0" width="841.89001" height="1190.55"/>
    </clipPath>
    <clipPath id="clipPath3332">
      <use xlink:href="#SVGID_3_" overflow="visible" id="use3334" style="overflow:visible" x="0" y="0" width="841.89001" height="1190.55"/>
    </clipPath>
    <clipPath id="clipPath3336">
      <use xlink:href="#SVGID_3_" overflow="visible" id="use3338" style="overflow:visible" x="0" y="0" width="841.89001" height="1190.55"/>
    </clipPath>
    <clipPath id="clipPath3340">
      <use xlink:href="#SVGID_3_" overflow="visible" id="use3342" style="overflow:visible" x="0" y="0" width="841.89001" height="1190.55"/>
    </clipPath>
    <clipPath id="clipPath3344">
      <use xlink:href="#SVGID_3_" overflow="visible" id="use3346" style="overflow:visible" x="0" y="0" width="841.89001" height="1190.55"/>
    </clipPath>
    <clipPath id="clipPath3348">
      <use xlink:href="#SVGID_3_" overflow="visible" id="use3350" style="overflow:visible" x="0" y="0" width="841.89001" height="1190.55"/>
    </clipPath>
    <clipPath id="clipPath3352">
      <use xlink:href="#SVGID_3_" overflow="visible" id="use3354" style="overflow:visible" x="0" y="0" width="841.89001" height="1190.55"/>
    </clipPath>
    <clipPath id="clipPath3356">
      <use xlink:href="#SVGID_3_" overflow="visible" id="use3358" style="overflow:visible" x="0" y="0" width="841.89001" height="1190.55"/>
    </clipPath>
    <clipPath id="clipPath3360">
      <use xlink:href="#SVGID_3_" overflow="visible" id="use3362" style="overflow:visible" x="0" y="0" width="841.89001" height="1190.55"/>
    </clipPath>
    <clipPath id="clipPath3364">
      <use xlink:href="#SVGID_3_" overflow="visible" id="use3366" style="overflow:visible" x="0" y="0" width="841.89001" height="1190.55"/>
    </clipPath>
    <clipPath id="clipPath3368">
      <use xlink:href="#SVGID_3_" overflow="visible" id="use3370" style="overflow:visible" x="0" y="0" width="841.89001" height="1190.55"/>
    </clipPath>
    <clipPath id="clipPath3372">
      <use xlink:href="#SVGID_3_" overflow="visible" id="use3374" style="overflow:visible" x="0" y="0" width="841.89001" height="1190.55"/>
    </clipPath>
    <clipPath id="clipPath3376">
      <use xlink:href="#SVGID_3_" overflow="visible" id="use3378" style="overflow:visible" x="0" y="0" width="841.89001" height="1190.55"/>
    </clipPath>
    <clipPath id="clipPath3380">
      <use xlink:href="#SVGID_3_" overflow="visible" id="use3382" style="overflow:visible" x="0" y="0" width="841.89001" height="1190.55"/>
    </clipPath>
    <clipPath id="clipPath3384">
      <use xlink:href="#SVGID_3_" overflow="visible" id="use3386" style="overflow:visible" x="0" y="0" width="841.89001" height="1190.55"/>
    </clipPath>
    <clipPath id="clipPath3388">
      <use xlink:href="#SVGID_3_" overflow="visible" id="use3390" style="overflow:visible" x="0" y="0" width="841.89001" height="1190.55"/>
    </clipPath>
    <clipPath id="clipPath3392">
      <use xlink:href="#SVGID_3_" overflow="visible" id="use3394" style="overflow:visible" x="0" y="0" width="841.89001" height="1190.55"/>
    </clipPath>
    <clipPath id="clipPath3396">
      <use xlink:href="#SVGID_3_" overflow="visible" id="use3398" style="overflow:visible" x="0" y="0" width="841.89001" height="1190.55"/>
    </clipPath>
    <clipPath id="clipPath3400">
      <use xlink:href="#SVGID_3_" overflow="visible" id="use3402" style="overflow:visible" x="0" y="0" width="841.89001" height="1190.55"/>
    </clipPath>
    <clipPath id="clipPath3404">
      <use xlink:href="#SVGID_3_" overflow="visible" id="use3406" style="overflow:visible" x="0" y="0" width="841.89001" height="1190.55"/>
    </clipPath>
    <clipPath id="clipPath3408">
      <use xlink:href="#SVGID_3_" overflow="visible" id="use3410" style="overflow:visible" x="0" y="0" width="841.89001" height="1190.55"/>
    </clipPath>
    <clipPath id="clipPath3412">
      <use xlink:href="#SVGID_3_" overflow="visible" id="use3414" style="overflow:visible" x="0" y="0" width="841.89001" height="1190.55"/>
    </clipPath>
    <clipPath id="clipPath3416">
      <use xlink:href="#SVGID_3_" overflow="visible" id="use3418" style="overflow:visible" x="0" y="0" width="841.89001" height="1190.55"/>
    </clipPath>
    <clipPath id="clipPath3420">
      <use xlink:href="#SVGID_3_" overflow="visible" id="use3422" style="overflow:visible" x="0" y="0" width="841.89001" height="1190.55"/>
    </clipPath>
    <clipPath id="clipPath3424">
      <use xlink:href="#SVGID_3_" overflow="visible" id="use3426" style="overflow:visible" x="0" y="0" width="841.89001" height="1190.55"/>
    </clipPath>
    <clipPath id="clipPath3428">
      <use xlink:href="#SVGID_3_" overflow="visible" id="use3430" style="overflow:visible" x="0" y="0" width="841.89001" height="1190.55"/>
    </clipPath>
    <clipPath id="clipPath3432">
      <use xlink:href="#SVGID_3_" overflow="visible" id="use3434" style="overflow:visible" x="0" y="0" width="841.89001" height="1190.55"/>
    </clipPath>
    <clipPath id="clipPath3436">
      <use xlink:href="#SVGID_3_" overflow="visible" id="use3438" style="overflow:visible" x="0" y="0" width="841.89001" height="1190.55"/>
    </clipPath>
    <clipPath id="clipPath3440">
      <use xlink:href="#SVGID_3_" overflow="visible" id="use3442" style="overflow:visible" x="0" y="0" width="841.89001" height="1190.55"/>
    </clipPath>
    <clipPath id="clipPath3444">
      <use xlink:href="#SVGID_3_" overflow="visible" id="use3446" style="overflow:visible" x="0" y="0" width="841.89001" height="1190.55"/>
    </clipPath>
    <clipPath id="clipPath3448">
      <use xlink:href="#SVGID_3_" overflow="visible" id="use3450" style="overflow:visible" x="0" y="0" width="841.89001" height="1190.55"/>
    </clipPath>
    <clipPath id="clipPath3452">
      <use xlink:href="#SVGID_3_" overflow="visible" id="use3454" style="overflow:visible" x="0" y="0" width="841.89001" height="1190.55"/>
    </clipPath>
    <clipPath id="clipPath3456">
      <use xlink:href="#SVGID_3_" overflow="visible" id="use3458" style="overflow:visible" x="0" y="0" width="841.89001" height="1190.55"/>
    </clipPath>
    <clipPath id="clipPath3460">
      <use xlink:href="#SVGID_3_" overflow="visible" id="use3462" style="overflow:visible" x="0" y="0" width="841.89001" height="1190.55"/>
    </clipPath>
    <clipPath id="clipPath3464">
      <use xlink:href="#SVGID_3_" overflow="visible" id="use3466" style="overflow:visible" x="0" y="0" width="841.89001" height="1190.55"/>
    </clipPath>
    <clipPath id="clipPath3468">
      <use xlink:href="#SVGID_3_" overflow="visible" id="use3470" style="overflow:visible" x="0" y="0" width="841.89001" height="1190.55"/>
    </clipPath>
    <clipPath id="clipPath3472">
      <use xlink:href="#SVGID_3_" overflow="visible" id="use3474" style="overflow:visible" x="0" y="0" width="841.89001" height="1190.55"/>
    </clipPath>
    <clipPath id="clipPath3476">
      <use xlink:href="#SVGID_3_" overflow="visible" id="use3478" style="overflow:visible" x="0" y="0" width="841.89001" height="1190.55"/>
    </clipPath>
    <clipPath id="clipPath3480">
      <use xlink:href="#SVGID_3_" overflow="visible" id="use3482" style="overflow:visible" x="0" y="0" width="841.89001" height="1190.55"/>
    </clipPath>
    <clipPath id="clipPath3484">
      <use xlink:href="#SVGID_3_" overflow="visible" id="use3486" style="overflow:visible" x="0" y="0" width="841.89001" height="1190.55"/>
    </clipPath>
    <clipPath id="clipPath3488">
      <use xlink:href="#SVGID_3_" overflow="visible" id="use3490" style="overflow:visible" x="0" y="0" width="841.89001" height="1190.55"/>
    </clipPath>
    <clipPath id="clipPath3492">
      <use xlink:href="#SVGID_3_" overflow="visible" id="use3494" style="overflow:visible" x="0" y="0" width="841.89001" height="1190.55"/>
    </clipPath>
    <clipPath id="clipPath3496">
      <use xlink:href="#SVGID_3_" overflow="visible" id="use3498" style="overflow:visible" x="0" y="0" width="841.89001" height="1190.55"/>
    </clipPath>
    <clipPath id="clipPath3500">
      <use xlink:href="#SVGID_3_" overflow="visible" id="use3502" style="overflow:visible" x="0" y="0" width="841.89001" height="1190.55"/>
    </clipPath>
    <clipPath id="clipPath3504">
      <use xlink:href="#SVGID_3_" overflow="visible" id="use3506" style="overflow:visible" x="0" y="0" width="841.89001" height="1190.55"/>
    </clipPath>
    <clipPath id="clipPath3508">
      <use xlink:href="#SVGID_3_" overflow="visible" id="use3510" style="overflow:visible" x="0" y="0" width="841.89001" height="1190.55"/>
    </clipPath>
    <clipPath id="clipPath3512">
      <use xlink:href="#SVGID_3_" overflow="visible" id="use3514" style="overflow:visible" x="0" y="0" width="841.89001" height="1190.55"/>
    </clipPath>
    <clipPath id="clipPath3516">
      <use xlink:href="#SVGID_3_" overflow="visible" id="use3518" style="overflow:visible" x="0" y="0" width="841.89001" height="1190.55"/>
    </clipPath>
  </defs>
  <sodipodi:namedview id="base" pagecolor="#ffffff" bordercolor="#666666" borderopacity="1.0" inkscape:pageopacity="0.0" inkscape:pageshadow="2" inkscape:zoom="0.25328786" inkscape:cx="-301.71023" inkscape:cy="893.09852" inkscape:document-units="px" inkscape:current-layer="layer1" showgrid="false" inkscape:window-width="1366" inkscape:window-height="702" inkscape:window-x="0" inkscape:window-y="27" inkscape:window-maximized="1"/>
  <metadata id="metadata3608">
    <rdf:RDF>
      <cc:Work rdf:about="">
        <dc:format>image/svg+xml</dc:format>
        <dc:type rdf:resource="http://purl.org/dc/dcmitype/StillImage"/>
        <dc:title/>
      </cc:Work>
    </rdf:RDF>
  </metadata>
  <g inkscape:label="Capa 1" inkscape:groupmode="layer" id="layer1">
    <g id="g3" transform="matrix(8.91215,0,0,8.91215,-3748.1516,-4790.6781)">
      <path d="m 435.044,624.459 c -3.349,0 -5.515,1.64 -6.551,4.966 l -2.855,10.654 h 1.409 c 0.925,0 1.514,-0.463 1.763,-1.39 l 1.201,-4.484 c 0.406,1.158 1.306,1.729 2.696,1.729 2.995,-0.107 4.994,-2.065 6.011,-5.854 1.005,-3.749 -0.223,-5.621 -3.674,-5.621 m 0.774,5.748 c -0.638,2.146 -1.705,3.221 -3.221,3.221 -1.516,0 -2.007,-1.075 -1.516,-3.221 0.581,-2.255 1.64,-3.371 3.238,-3.371 1.605,0 2.105,1.116 1.499,3.371 m 13.511,-5.625 c -0.718,0 -1.25,0.339 -1.595,0.991 l -3.74,6.735 -0.141,-7.727 h -3.179 l 0.873,10.886 c 0.047,1.476 -0.703,2.231 -2.24,2.231 h -0.779 l -0.616,2.296 c 0.069,0.063 0.441,0.084 1.157,0.084 2.314,0 3.16,-0.63 4.32,-2.463 l 7.896,-13.034 h -1.956 z" id="path5" inkscape:connector-curvature="0" style="fill:#dd9b37"/>
      <path d="m 485.592,622.4 c 2.299,0 3.632,0.871 3.978,2.578 0.2,0.939 0.838,1.431 1.883,1.431 h 2.926 c 0.448,-2.58 0.059,-4.638 -1.213,-6.134 -1.387,-1.465 -3.531,-2.161 -6.426,-2.161 -7.49,0 -12.557,4.599 -14.603,12.232 -1.978,7.386 0.356,12.193 7.639,12.193 5.993,0 10.657,-3.101 12.575,-8.57 h -4.703 c -1.222,2.61 -3.412,4.283 -6.443,4.283 -4.426,0 -5.465,-3.274 -4.223,-7.906 1.278,-4.777 4.112,-7.946 8.61,-7.946 m -28.345,9.303 h 6.724 c 1.708,0 2.756,-0.802 3.16,-2.438 l 0.423,-1.569 h -9.233 l 1.36,-5.088 h 12.371 l 1.103,-4.11 h -14.706 c -1.647,0.035 -2.68,0.905 -3.119,2.543 l -5.665,21.149 h 17.14 l 1.167,-4.355 h -12.368 l 1.643,-6.132 z" id="path7" inkscape:connector-curvature="0" style="fill:#004468"/>
      <g id="g9">
        <defs id="defs11">
          <rect id="SVGID_1_" x="423.03" y="552.25" width="76.584" height="57.192001"/>
        </defs>
        <clipPath id="clipPath3526">
          <use xlink:href="#SVGID_1_" overflow="visible" id="use3528" style="overflow:visible" x="0" y="0" width="841.89001" height="1190.55"/>
        </clipPath>
        <g clip-path="url(#SVGID_2_)" id="g17">
          <defs id="defs19">
            <rect id="SVGID_3_" x="423.03" y="552.25" width="76.584" height="57.192001"/>
          </defs>
          <clipPath id="clipPath3533">
            <use xlink:href="#SVGID_3_" overflow="visible" id="use3535" style="overflow:visible" x="0" y="0" width="841.89001" height="1190.55"/>
          </clipPath>
          <path clip-path="url(#SVGID_4_)" d="m 476.955,553.593 c -0.116,-0.313 -0.312,-0.782 -0.583,-1.255 6.268,-0.334 12.097,0.306 17.047,1.838 l 1.167,1.254 4.523,2.229 0.503,1.024 -1.771,2.743 -2.664,-0.046 -2.697,-0.944 c -1.737,-0.626 -4.011,-0.049 -4.011,-0.049 -1.955,-0.702 -3.985,-4.778 -3.985,-4.778 0,0 -3.075,-0.214 -7.651,0.174 0.016,-0.178 0.105,-2.014 0.122,-2.19" id="path25" inkscape:connector-curvature="0" style="fill:#c0b745"/>
          <path clip-path="url(#SVGID_4_)" d="m 487.407,599.259 c 2.727,-1.351 5.497,-2.985 8.295,-4.947 -4.264,3.163 -8.497,5.589 -12.629,7.425 -1.61,0.715 -3.206,1.34 -4.784,1.884 l -0.344,-0.658 c 3.062,-0.891 6.231,-2.099 9.462,-3.704" id="path27" inkscape:connector-curvature="0" style="fill:#c4472d"/>
          <path clip-path="url(#SVGID_4_)" d="m 495.705,594.312 c -3.654,3.081 -7.637,5.603 -12.299,7.807 -0.141,-0.138 -0.251,-0.271 -0.333,-0.382 4.132,-1.837 8.365,-4.262 12.632,-7.425" id="path29" inkscape:connector-curvature="0" style="fill:#711622"/>
          <path clip-path="url(#SVGID_4_)" d="m 482.831,570.839 c 0,0 2.882,2.99 1.839,6.65 -0.64,0.145 -1.281,0.305 -1.926,0.479 -0.03,-0.646 -0.128,-1.415 -0.297,-2.273 -0.112,-0.565 -0.532,-1.823 -0.532,-1.823 -0.259,-0.711 -0.599,-1.45 -1.032,-2.198 l -0.481,0.011 c -10e-4,-10e-4 1.074,-0.554 2.429,-0.846" id="path31" inkscape:connector-curvature="0" style="fill:#42709e"/>
          <path clip-path="url(#SVGID_4_)" d="m 483.073,601.736 c 0.083,0.112 0.192,0.244 0.333,0.382 -1.493,0.707 -3.059,1.381 -4.703,2.031 -0.182,-0.196 -0.315,-0.379 -0.414,-0.529 l 0,0 c 1.578,-0.544 3.174,-1.169 4.784,-1.884" id="path33" inkscape:connector-curvature="0" style="fill:#711622"/>
          <path clip-path="url(#SVGID_4_)" d="m 482.447,575.694 c 0.169,0.858 0.267,1.628 0.297,2.273 -1.231,0.33 -2.469,0.706 -3.706,1.125 -0.083,-0.657 -0.231,-1.435 -0.482,-2.278 -0.096,-0.345 -0.616,-1.701 -0.616,-1.701 -0.294,-0.668 -0.654,-1.358 -1.101,-2.052 2.193,-0.882 3.515,-1.364 3.563,-1.38 l 0.481,-0.009 c 0.434,0.748 0.773,1.487 1.032,2.198 0,10e-4 0.42,1.259 0.532,1.824" id="path35" inkscape:connector-curvature="0" style="fill:#42709e"/>
          <path clip-path="url(#SVGID_4_)" d="m 480.096,571.655 c -0.774,-0.07 -1.541,-0.132 -2.298,-0.188 0,0 1.682,-0.785 2.968,-0.96 0.682,0.103 1.371,0.215 2.065,0.331 -1.355,0.292 -2.43,0.843 -2.43,0.843 -0.101,-0.011 -0.203,-0.018 -0.305,-0.026" id="path37" inkscape:connector-curvature="0" style="fill:#4976a5"/>
          <path clip-path="url(#SVGID_4_)" d="m 467.974,576.892 c -0.206,0.096 -0.412,0.192 -0.622,0.287 -1.385,0.138 -3.465,0.403 -5.078,0.751 1.049,-0.479 2.119,-0.957 3.212,-1.428 0.614,-0.263 1.235,-0.53 1.866,-0.791 1.441,-0.604 2.925,-1.199 4.442,-1.783 0,0 0.003,0 0.011,-0.006 0.251,-0.097 0.5,-0.193 0.754,-0.288 0.392,-0.15 0.788,-0.299 1.19,-0.445 1.564,-0.541 3.902,-1.227 6.347,-1.533 0.103,0.007 0.204,0.018 0.306,0.026 -0.048,0.016 -1.369,0.498 -3.563,1.38 -0.375,0.151 -0.779,0.317 -1.209,0.494 l 0,0 c -0.969,0.397 -2.06,0.856 -3.249,1.371 -1.354,0.584 -2.832,1.241 -4.407,1.965" id="path39" inkscape:connector-curvature="0" style="fill:#3e6c99"/>
          <path clip-path="url(#SVGID_4_)" d="m 480.766,570.508 c -1.286,0.175 -2.968,0.96 -2.968,0.96 -1.584,-0.117 -3.133,-0.2 -4.644,-0.257 l 0,0 c 0,0 1.045,-0.87 3.801,-1.184 1.252,0.13 2.521,0.291 3.811,0.481" id="path41" inkscape:connector-curvature="0" style="fill:#42709e"/>
          <path clip-path="url(#SVGID_4_)" d="m 478.556,576.814 c 0.251,0.844 0.396,1.621 0.482,2.278 -1.406,0.475 -2.814,1.002 -4.217,1.569 -0.131,-0.64 -0.328,-1.387 -0.622,-2.197 -0.147,-0.436 -0.69,-1.624 -0.69,-1.624 -0.313,-0.628 -0.685,-1.269 -1.128,-1.914 1.189,-0.515 2.28,-0.974 3.249,-1.371 l 0,0 c 0.43,-0.177 0.834,-0.343 1.209,-0.494 0.446,0.693 0.807,1.384 1.101,2.052 -10e-4,0 0.52,1.357 0.616,1.701" id="path43" inkscape:connector-curvature="0" style="fill:#3d6b97"/>
          <path clip-path="url(#SVGID_4_)" d="m 473.798,605.921 c -2.101,0.682 -4.197,1.263 -6.277,1.744 -0.313,-0.523 -0.515,-1.007 -0.646,-1.386 l 0,0 c 2.086,-0.262 4.23,-0.649 6.422,-1.189 1.638,-0.401 3.305,-0.889 4.993,-1.47 0.099,0.15 0.232,0.333 0.414,0.529 -0.827,0.324 -1.671,0.645 -2.539,0.959 -0.791,0.286 -1.581,0.556 -2.367,0.813" id="path45" inkscape:connector-curvature="0" style="fill:#711622"/>
          <path clip-path="url(#SVGID_4_)" d="m 473.296,605.09 c -2.191,0.541 -4.336,0.928 -6.422,1.187 -2.313,0.292 -4.552,0.426 -6.704,0.439 -0.003,-0.272 0.027,-0.556 0.07,-0.824 l 0.027,-0.145 c 0.05,-0.267 0.11,-0.511 0.165,-0.708 5.152,0.243 11.104,-0.217 17.513,-2.077 l 0.344,0.658 0,0 c -1.688,0.581 -3.355,1.068 -4.993,1.47" id="path47" inkscape:connector-curvature="0" style="fill:#c4472d"/>
          <path clip-path="url(#SVGID_4_)" d="m 477.798,571.468 c 0.757,0.054 1.523,0.117 2.298,0.188 -2.444,0.307 -4.782,0.992 -6.347,1.533 -0.471,0.16 -0.872,0.308 -1.187,0.428 0.144,-0.797 0.342,-1.602 0.592,-2.404 1.511,0.055 3.06,0.141 4.644,0.255" id="path49" inkscape:connector-curvature="0" style="fill:#4976a5"/>
          <path clip-path="url(#SVGID_4_)" d="m 476.955,553.593 c -0.018,0.176 -0.106,2.013 -0.123,2.189 -1.43,0.122 -3.006,0.304 -4.684,0.567 -0.012,-0.194 -0.219,-2.034 -0.23,-2.224 1.78,-0.258 3.467,-0.426 5.037,-0.532" id="path51" inkscape:connector-curvature="0" style="fill:#b9953b"/>
          <path clip-path="url(#SVGID_4_)" d="m 471.918,554.126 c -1.543,0.223 -3.156,0.509 -4.823,0.878 -0.02,-0.036 -0.354,-0.638 -0.99,-1.311 3.503,-0.733 6.949,-1.18 10.268,-1.355 0.271,0.473 0.467,0.942 0.583,1.255 -1.571,0.106 -3.258,0.274 -5.038,0.533" id="path53" inkscape:connector-curvature="0" style="fill:#c0b745"/>
          <path clip-path="url(#SVGID_4_)" d="m 474.199,578.468 c 0.294,0.808 0.491,1.555 0.622,2.194 -1.399,0.565 -2.791,1.176 -4.168,1.814 -0.172,-0.631 -0.416,-1.375 -0.756,-2.184 -0.229,-0.576 -0.768,-1.588 -0.768,-1.588 -0.325,-0.599 -0.712,-1.209 -1.156,-1.813 1.575,-0.724 3.054,-1.381 4.407,-1.965 0.443,0.646 0.815,1.286 1.128,1.914 0.001,10e-4 0.544,1.193 0.691,1.628" id="path55" inkscape:connector-curvature="0" style="fill:#376691"/>
          <path clip-path="url(#SVGID_4_)" d="m 476.955,570.027 c -2.756,0.313 -3.801,1.184 -3.801,1.184 v 10e-4 c -1.591,-0.062 -3.139,-0.091 -4.644,-0.093 0.786,-0.441 2.044,-1.076 3.486,-1.482 1.616,0.083 3.271,0.21 4.959,0.39" id="path57" inkscape:connector-curvature="0" style="fill:#3d6b97"/>
          <path clip-path="url(#SVGID_4_)" d="m 473.154,571.211 c -0.25,0.806 -0.448,1.608 -0.592,2.405 -0.433,0.168 -0.698,0.28 -0.758,0.306 -0.008,0.006 -0.011,0.006 -0.011,0.006 -1.521,0.584 -3.001,1.179 -4.442,1.783 0.229,-1.783 0.369,-2.155 0.369,-2.155 0.215,-0.81 0.476,-1.622 0.79,-2.437 1.506,10e-4 3.053,0.03 4.644,0.092" id="path59" inkscape:connector-curvature="0" style="fill:#42709e"/>
          <path clip-path="url(#SVGID_4_)" d="m 471.918,554.126 c 0.012,0.189 0.219,2.029 0.23,2.224 -1.455,0.228 -2.986,0.524 -4.563,0.897 0,0 -0.491,-2.029 -0.491,-2.243 l 0,0 c 1.668,-0.369 3.281,-0.655 4.824,-0.878" id="path61" inkscape:connector-curvature="0" style="fill:#d88e33"/>
          <path clip-path="url(#SVGID_4_)" d="m 463.658,578.972 c -0.023,10e-4 -0.049,0.003 -0.075,0.006 1.299,-0.637 2.559,-1.237 3.769,-1.799 0.206,-0.095 0.416,-0.191 0.622,-0.287 0.444,0.604 0.831,1.215 1.156,1.813 0,0 0.538,1.011 0.768,1.588 0.34,0.809 0.584,1.553 0.756,2.184 -1.38,0.64 -2.743,1.309 -4.082,1.999 -0.209,-0.613 -0.5,-1.374 -0.897,-2.207 -0.236,-0.517 -0.868,-1.616 -0.868,-1.616 -0.335,-0.558 -0.714,-1.125 -1.149,-1.681" id="path63" inkscape:connector-curvature="0" style="fill:#2f608b"/>
          <path clip-path="url(#SVGID_4_)" d="m 471.997,569.637 c -1.442,0.406 -2.7,1.041 -3.486,1.482 -1.58,-0.004 -3.114,0.025 -4.602,0.081 v -0.001 c 0.903,-0.516 2.077,-1.184 3.327,-1.687 1.543,0.001 3.135,0.039 4.761,0.125" id="path65" inkscape:connector-curvature="0" style="fill:#376691"/>
          <path clip-path="url(#SVGID_4_)" d="m 465.485,576.502 c -1.093,0.471 -2.163,0.949 -3.212,1.428 -0.092,0.042 -0.187,0.086 -0.278,0.128 0.064,-0.643 0.16,-1.286 0.291,-1.934 0,0 0.363,-1.566 0.638,-2.407 0.273,-0.836 0.604,-1.677 0.985,-2.517 1.485,-0.056 3.021,-0.085 4.602,-0.081 -0.314,0.814 -0.575,1.627 -0.79,2.437 0,0 -0.141,0.372 -0.369,2.155 -0.631,0.261 -1.252,0.528 -1.867,0.791" id="path67" inkscape:connector-curvature="0" style="fill:#3d6b97"/>
          <path clip-path="url(#SVGID_4_)" d="m 467.095,555.004 c 0,0.214 0.491,2.243 0.491,2.243 -1.408,0.331 -2.851,0.731 -4.302,1.202 l -1.152,-2.148 c 1.694,-0.515 3.354,-0.944 4.963,-1.297 l 0,0 z" id="path69" inkscape:connector-curvature="0" style="fill:#d88e33"/>
          <path clip-path="url(#SVGID_4_)" d="m 462.623,569.621 c 1.487,-0.072 3.028,-0.111 4.613,-0.108 -1.25,0.503 -2.424,1.171 -3.327,1.687 v 10e-4 c -1.589,0.056 -3.123,0.144 -4.604,0.257 0.951,-0.556 2.113,-1.256 3.318,-1.837" id="path71" inkscape:connector-curvature="0" style="fill:#2f608b"/>
          <path clip-path="url(#SVGID_4_)" d="m 466.874,606.279 c 0.132,0.379 0.333,0.862 0.646,1.386 -2.234,0.519 -4.448,0.918 -6.626,1.209 -0.183,-0.389 -0.325,-0.761 -0.438,-1.104 l -0.028,-0.091 c -0.118,-0.366 -0.2,-0.691 -0.258,-0.964 2.153,-0.013 4.391,-0.147 6.704,-0.436 l 0,0 z" id="path73" inkscape:connector-curvature="0" style="fill:#791c25"/>
          <path clip-path="url(#SVGID_4_)" d="m 466.104,553.693 c 0.637,0.676 0.971,1.274 0.99,1.311 -1.608,0.352 -3.269,0.781 -4.963,1.297 -0.327,-0.291 -0.902,-0.748 -1.734,-1.172 1.913,-0.562 3.818,-1.038 5.707,-1.436" id="path75" inkscape:connector-curvature="0" style="fill:#e7b93a"/>
          <path clip-path="url(#SVGID_4_)" d="m 465.674,582.269 c 0.396,0.833 0.688,1.594 0.897,2.207 -1.353,0.696 -2.678,1.413 -3.972,2.139 -0.229,-0.571 -0.573,-1.351 -1.04,-2.228 -0.467,-0.876 -0.93,-1.583 -0.93,-1.583 -0.363,-0.563 -0.775,-1.142 -1.233,-1.706 1.423,-0.746 2.824,-1.452 4.187,-2.12 l 0,0 c 0.026,-0.003 0.052,-0.005 0.075,-0.006 0.435,0.557 0.813,1.123 1.147,1.681 10e-4,-10e-4 0.633,1.099 0.869,1.616" id="path77" inkscape:connector-curvature="0" style="fill:#295b84"/>
          <path clip-path="url(#SVGID_4_)" d="m 462.273,577.93 c 1.613,-0.348 3.693,-0.613 5.078,-0.751 -1.21,0.562 -2.47,1.162 -3.769,1.799 l 0,0 c -0.731,0.044 -2.577,0.112 -4.293,0.355 0.166,-0.082 0.336,-0.165 0.506,-0.244 0.722,-0.342 1.456,-0.688 2.199,-1.031 0.093,-0.042 0.187,-0.086 0.279,-0.128" id="path79" inkscape:connector-curvature="0" style="fill:#386792"/>
          <path clip-path="url(#SVGID_4_)" d="m 462.132,556.301 1.152,2.148 c -1.423,0.466 -2.854,0.998 -4.277,1.617 -0.248,-0.333 -1.536,-2.052 -1.595,-2.124 1.595,-0.629 3.172,-1.171 4.72,-1.641" id="path81" inkscape:connector-curvature="0" style="fill:#d88e33"/>
          <path clip-path="url(#SVGID_4_)" d="m 463.909,571.2 c -0.381,0.84 -0.712,1.677 -0.985,2.517 -0.274,0.841 -0.638,2.407 -0.638,2.407 -0.131,0.646 -0.227,1.291 -0.291,1.934 -0.743,0.344 -1.478,0.689 -2.198,1.031 -1.017,0.137 -2.01,0.283 -2.979,0.439 0.104,-1.081 0.307,-2.173 0.603,-3.271 0,0 0.411,-1.396 0.736,-2.247 0.33,-0.851 0.712,-1.703 1.148,-2.554 1.479,-0.112 3.015,-0.198 4.604,-0.256" id="path83" inkscape:connector-curvature="0" style="fill:#376691"/>
          <path clip-path="url(#SVGID_4_)" d="m 442.035,589.054 c 1.998,-1.312 4.194,-2.676 6.596,-4.071 3.192,-1.857 6.745,-3.766 10.659,-5.65 1.716,-0.242 3.562,-0.312 4.293,-0.354 -1.362,0.668 -2.764,1.374 -4.187,2.12 -3.748,1.956 -7.653,4.172 -11.396,6.595 -1.977,1.279 -3.908,2.615 -5.748,4.002 -0.35,0.266 -0.694,0.53 -1.038,0.797 h -0.002 c -0.454,0.027 -0.951,0.059 -1.484,0.104 l -1.169,0.106 c -0.704,0.073 -1.438,0.163 -2.182,0.274 1.659,-1.22 3.547,-2.54 5.658,-3.923" id="path85" inkscape:connector-curvature="0" style="fill:#386792"/>
          <path clip-path="url(#SVGID_4_)" d="m 458.198,589.191 c -1.527,0.924 -2.984,1.847 -4.354,2.743 -0.408,-0.491 -1.016,-1.148 -1.837,-1.833 l -1.742,-1.256 c -0.67,-0.414 -1.423,-0.809 -2.264,-1.151 3.742,-2.425 7.647,-4.641 11.396,-6.597 0.458,0.564 0.87,1.143 1.233,1.706 0,0 0.463,0.707 0.93,1.585 0.467,0.875 0.811,1.655 1.04,2.226 -1.517,0.851 -2.991,1.716 -4.402,2.577" id="path87" inkscape:connector-curvature="0" style="fill:#214770"/>
          <path clip-path="url(#SVGID_4_)" d="m 457.408,557.941 c -0.414,-0.264 -1.175,-0.688 -2.288,-1.052 0.276,-0.102 0.555,-0.203 0.832,-0.304 1.483,-0.537 2.966,-1.022 4.445,-1.457 0.832,0.424 1.407,0.881 1.734,1.172 -1.548,0.471 -3.125,1.013 -4.72,1.641 h -0.003" id="path89" inkscape:connector-curvature="0" style="fill:#e7b93a"/>
          <path clip-path="url(#SVGID_4_)" d="m 462.623,569.621 c -1.205,0.581 -2.367,1.281 -3.317,1.836 -1.613,0.123 -3.161,0.276 -4.642,0.453 0.968,-0.583 2.069,-1.3 3.286,-1.949 h 0.003 c 1.49,-0.147 3.053,-0.264 4.67,-0.34" id="path91" inkscape:connector-curvature="0" style="fill:#295b84"/>
          <path clip-path="url(#SVGID_4_)" d="m 454.055,609.423 c -0.507,0.013 -1.012,0.02 -1.51,0.02 -2.647,0 -5.2,-0.183 -7.616,-0.537 0.053,-0.568 0.187,-1.144 0.361,-1.682 l 0.291,-0.803 c 0.205,-0.518 0.429,-0.974 0.618,-1.335 2.188,0.525 4.601,0.974 7.2,1.269 2.137,0.239 4.399,0.374 6.771,0.361 0.058,0.272 0.14,0.598 0.258,0.964 l 0.028,0.091 c 0.113,0.343 0.256,0.712 0.438,1.101 -2.331,0.312 -4.615,0.493 -6.839,0.551" id="path93" inkscape:connector-curvature="0" style="fill:#9d2b2c"/>
          <path clip-path="url(#SVGID_4_)" d="m 453.399,606.352 c -2.6,-0.292 -5.012,-0.74 -7.2,-1.266 0.256,-0.32 0.516,-0.624 0.771,-0.91 l 0.421,-0.459 c 0.24,-0.257 0.469,-0.498 0.677,-0.722 3.169,0.919 7.395,1.811 12.365,2.044 -0.053,0.197 -0.115,0.441 -0.165,0.708 l -0.027,0.145 c -0.043,0.269 -0.073,0.552 -0.07,0.824 -2.372,0.013 -4.635,-0.122 -6.772,-0.364" id="path95" inkscape:connector-curvature="0" style="fill:#c64731"/>
          <path clip-path="url(#SVGID_4_)" d="m 454.664,571.91 c 1.48,-0.177 3.028,-0.33 4.642,-0.453 -0.437,0.851 -0.818,1.703 -1.148,2.554 -0.327,0.851 -0.736,2.247 -0.736,2.247 -0.295,1.098 -0.498,2.189 -0.603,3.271 -3.759,0.606 -7.176,1.354 -10.267,2.181 0.188,-1.41 0.542,-2.829 1.049,-4.252 0,0 0.573,-1.506 0.89,-2.161 0.419,-0.904 0.901,-1.811 1.443,-2.713 1.496,-0.249 3.072,-0.476 4.73,-0.674" id="path97" inkscape:connector-curvature="0" style="fill:#2f608b"/>
          <path clip-path="url(#SVGID_4_)" d="m 457.412,557.942 c 0.059,0.073 1.347,1.791 1.595,2.124 -1.252,0.545 -2.496,1.154 -3.719,1.836 l -2.158,-2.096 c 1.437,-0.69 2.867,-1.31 4.282,-1.864" id="path99" inkscape:connector-curvature="0" style="fill:#d88e33"/>
          <path clip-path="url(#SVGID_4_)" d="m 457.408,557.941 h 0.004 c -1.415,0.555 -2.845,1.175 -4.282,1.865 0,0 -0.859,-0.558 -2.596,-1.021 1.485,-0.675 3.014,-1.306 4.586,-1.896 1.113,0.365 1.874,0.789 2.288,1.052" id="path101" inkscape:connector-curvature="0" style="fill:#e7b93a"/>
          <path clip-path="url(#SVGID_4_)" d="m 457.95,569.961 c -1.215,0.649 -2.318,1.366 -3.286,1.949 -1.658,0.198 -3.234,0.425 -4.73,0.673 0.964,-0.591 2.101,-1.332 3.363,-2.05 1.467,-0.218 3.023,-0.413 4.653,-0.572" id="path103" inkscape:connector-curvature="0" style="fill:#1f557e"/>
          <path clip-path="url(#SVGID_4_)" d="m 453.13,559.807 2.157,2.096 c -1.351,0.754 -2.677,1.594 -3.956,2.536 -0.408,-0.218 -0.817,-0.425 -1.224,-0.63 l -1.045,-0.513 c -0.428,-0.208 -0.85,-0.406 -1.265,-0.598 0.111,-0.067 0.221,-0.134 0.334,-0.2 1.669,-1.002 3.34,-1.894 4.999,-2.691" id="path105" inkscape:connector-curvature="0" style="fill:#d88e33"/>
          <path clip-path="url(#SVGID_4_)" d="m 452.007,590.102 c 0.821,0.685 1.429,1.342 1.837,1.833 -1.538,1 -2.968,1.97 -4.268,2.874 h -0.002 c -0.486,-0.384 -1.24,-0.913 -2.238,-1.439 l -2.229,-0.963 c -0.855,-0.297 -1.807,-0.547 -2.854,-0.711 1.84,-1.388 3.771,-2.724 5.748,-4.001 0.841,0.343 1.594,0.737 2.264,1.151 l 1.742,1.256 z" id="path107" inkscape:connector-curvature="0" style="fill:#662232"/>
          <path clip-path="url(#SVGID_4_)" d="m 441.655,566.955 v 0.002 h -0.002 c -0.055,0.02 -1.852,0.717 -4.215,1.825 l -0.445,0.212 c -1.761,0.841 -3.787,1.894 -5.618,3.058 4.739,-5.075 11.301,-9.712 19.159,-13.267 1.736,0.464 2.597,1.021 2.597,1.021 -1.66,0.798 -3.331,1.689 -5.003,2.691 -0.109,0.066 -0.219,0.133 -0.33,0.2 -2.057,1.251 -4.11,2.664 -6.143,4.258" id="path109" inkscape:connector-curvature="0" style="fill:#e6c13a"/>
          <path clip-path="url(#SVGID_4_)" d="m 453.297,570.533 c -1.263,0.718 -2.399,1.459 -3.363,2.05 -1.732,0.289 -3.354,0.605 -4.865,0.939 0.909,-0.569 2.207,-1.364 3.566,-2.172 1.431,-0.289 2.99,-0.569 4.662,-0.817" id="path111" inkscape:connector-curvature="0" style="fill:#1f557e"/>
          <path clip-path="url(#SVGID_4_)" d="m 450.107,563.809 c 0.406,0.205 0.815,0.412 1.224,0.63 -1.275,0.938 -2.505,1.974 -3.671,3.118 -0.765,-0.106 -1.522,-0.2 -2.261,-0.278 l -1.729,-0.169 c -0.703,-0.062 -1.38,-0.113 -2.016,-0.154 2.032,-1.594 4.086,-3.007 6.143,-4.256 0.415,0.19 0.837,0.389 1.265,0.597 l 1.045,0.512 z" id="path113" inkscape:connector-curvature="0" style="fill:#d88e33"/>
          <path clip-path="url(#SVGID_4_)" d="m 447.336,593.369 c 0.998,0.526 1.752,1.056 2.238,1.439 -1.541,1.074 -2.899,2.054 -4.032,2.892 -0.467,-0.249 -1.303,-0.646 -2.492,-1.005 l -2.676,-0.588 c -0.951,-0.137 -2.014,-0.225 -3.193,-0.225 1.268,-1.158 2.619,-2.289 4.032,-3.392 h 0.002 c 0.344,-0.267 0.688,-0.531 1.038,-0.797 1.047,0.165 1.998,0.415 2.854,0.712 l 2.229,0.964 z" id="path115" inkscape:connector-curvature="0" style="fill:#b72e2d"/>
          <path clip-path="url(#SVGID_4_)" d="m 449.934,572.583 c -0.542,0.902 -1.024,1.809 -1.443,2.713 -0.316,0.655 -0.89,2.161 -0.89,2.161 -0.507,1.423 -0.859,2.847 -1.049,4.252 -1.846,0.492 -3.572,1.015 -5.188,1.552 0.199,-1.549 0.592,-3.108 1.176,-4.674 0,0 0.679,-1.676 0.964,-2.247 0.457,-0.941 0.977,-1.883 1.562,-2.817 h 0.003 c 1.511,-0.335 3.132,-0.651 4.865,-0.94" id="path117" inkscape:connector-curvature="0" style="fill:#1f557e"/>
          <path clip-path="url(#SVGID_4_)" d="m 438.614,602.715 h -0.003 c -3.484,-1.356 -5.491,-2.548 -5.562,-2.59 l -10e-4,-0.002 c 1.104,-0.095 2.098,-0.135 2.987,-0.14 l 3.02,0.14 h 0.002 c 0.449,0.048 0.839,0.104 1.178,0.156 0.084,0.016 0.162,0.028 0.239,0.042 0.039,0.006 0.077,0.013 0.116,0.02 0.071,0.016 0.141,0.031 0.208,0.043 l 0,0 c 0.067,0.013 0.127,0.026 0.188,0.038 l 0,0 c 0.505,0.112 0.753,0.199 0.753,0.199 0,0 2.32,1.21 6.328,2.374 -0.208,0.224 -0.438,0.465 -0.677,0.722 l -0.421,0.459 c -0.255,0.286 -0.515,0.59 -0.771,0.91 -2.974,-0.713 -5.536,-1.568 -7.584,-2.371" id="path119" inkscape:connector-curvature="0" style="fill:#c64731"/>
          <path clip-path="url(#SVGID_4_)" d="m 448.635,571.351 c -1.359,0.808 -2.657,1.603 -3.566,2.172 h -0.003 c -1.861,0.411 -3.554,0.846 -5.074,1.28 0,0 1.491,-0.962 3.634,-2.281 0.021,-0.004 0.04,-0.012 0.059,-0.018 1.416,-0.376 3.074,-0.775 4.95,-1.153" id="path121" inkscape:connector-curvature="0" style="fill:#004b70"/>
          <path clip-path="url(#SVGID_4_)" d="m 445.399,567.278 c 0.738,0.078 1.496,0.172 2.262,0.278 -0.998,0.98 -1.947,2.044 -2.838,3.191 -1.03,0.164 -2.051,0.352 -3.033,0.551 l -2.994,0.651 c -1.42,0.332 -2.688,0.658 -3.714,0.938 0.05,-0.052 0.098,-0.1 0.146,-0.148 2.098,-2.154 4.249,-4.074 6.426,-5.783 h 0.002 v -0.002 c 0.636,0.041 1.313,0.093 2.016,0.154 l 1.727,0.17 z" id="path123" inkscape:connector-curvature="0" style="fill:#d58332"/>
          <path clip-path="url(#SVGID_4_)" d="m 446.199,605.086 c -0.189,0.36 -0.413,0.817 -0.618,1.334 l -0.291,0.804 c -0.175,0.538 -0.309,1.113 -0.361,1.682 -4.342,-0.635 -8.253,-1.831 -11.53,-3.553 0.563,-0.343 1.161,-0.676 1.759,-0.989 l 1.67,-0.834 c 0.673,-0.319 1.286,-0.596 1.784,-0.814 h 0.003 c 2.047,0.802 4.609,1.657 7.584,2.37" id="path125" inkscape:connector-curvature="0" style="fill:#aa2d2d"/>
          <path clip-path="url(#SVGID_4_)" d="m 443.05,596.695 c 1.189,0.359 2.025,0.756 2.492,1.005 -2.365,1.752 -3.755,2.879 -3.802,2.921 h -0.001 c -0.016,-0.008 -0.263,-0.093 -0.753,-0.199 l 0,0 c -0.061,-0.014 -0.12,-0.026 -0.188,-0.038 l 0,0 c -0.065,-0.016 -0.137,-0.027 -0.208,-0.042 -0.039,-0.006 -0.077,-0.015 -0.116,-0.021 -0.073,-0.015 -0.155,-0.027 -0.239,-0.042 -0.339,-0.053 -0.729,-0.111 -1.178,-0.156 h -0.002 l -3.02,-0.14 c -0.89,0.005 -1.884,0.045 -2.987,0.14 h -0.003 c 1.235,-1.448 2.628,-2.864 4.135,-4.24 1.18,0 2.242,0.088 3.193,0.225 l 2.677,0.587 z" id="path127" inkscape:connector-curvature="0" style="fill:#c64731"/>
          <path clip-path="url(#SVGID_4_)" d="m 444.823,570.748 c -0.313,0.406 -0.621,0.823 -0.922,1.25 0,0 -0.163,0.331 -0.212,0.483 -0.02,0.012 -0.044,0.026 -0.064,0.04 -3.586,0.958 -5.599,1.775 -5.599,1.775 0,0 -4.793,1.348 -7.802,4.179 0,0 0,0 0,0.003 1.576,-2.02 3.202,-3.877 4.857,-5.59 l 0,0 c 1.026,-0.28 2.29,-0.606 3.714,-0.938 l 2.994,-0.651 c 0.983,-0.199 2,-0.387 3.034,-0.551" id="path129" inkscape:connector-curvature="0" style="fill:#d17831"/>
          <path clip-path="url(#SVGID_4_)" d="m 445.065,573.522 c -0.585,0.935 -1.104,1.876 -1.562,2.817 -0.285,0.573 -0.964,2.247 -0.964,2.247 -0.584,1.565 -0.977,3.125 -1.176,4.674 -1.9,0.632 -3.642,1.286 -5.229,1.938 0.162,-1.645 0.561,-3.318 1.164,-4.991 0,0 0.625,-1.611 1.093,-2.562 0.471,-0.951 1.003,-1.9 1.6,-2.842 v -0.002 c 1.521,-0.433 3.213,-0.867 5.074,-1.279" id="path131" inkscape:connector-curvature="0" style="fill:#0f5078"/>
          <path clip-path="url(#SVGID_4_)" d="m 443.625,572.521 c -2.143,1.319 -3.634,2.281 -3.634,2.281 v 0.002 c -2.136,0.609 -3.931,1.219 -5.377,1.765 -2.836,1.064 -4.323,1.87 -4.39,1.909 3.009,-2.834 7.802,-4.182 7.802,-4.182 0,0 2.013,-0.817 5.599,-1.775" id="path133" inkscape:connector-curvature="0" style="fill:#0f5078"/>
          <path clip-path="url(#SVGID_4_)" d="m 437.438,568.782 c 2.363,-1.108 4.16,-1.806 4.215,-1.825 -2.177,1.709 -4.328,3.629 -6.426,5.783 0,0 -1.417,0.693 -3.451,1.839 l -0.479,0.271 c -1.24,0.712 -2.668,1.568 -4.126,2.525 1.173,-1.808 2.581,-3.59 4.203,-5.323 1.831,-1.164 3.857,-2.217 5.618,-3.058 l 0.446,-0.212 z" id="path135" inkscape:connector-curvature="0" style="fill:#e6c13a"/>
          <path clip-path="url(#SVGID_4_)" d="m 431.457,596.804 c 1.329,-1.099 2.971,-2.394 4.921,-3.828 0.743,-0.111 1.478,-0.201 2.182,-0.273 l 1.169,-0.107 c 0.533,-0.045 1.03,-0.076 1.484,-0.104 -1.413,1.103 -2.765,2.233 -4.032,3.392 -1.507,1.376 -2.899,2.792 -4.137,4.24 -0.035,0.002 -0.826,0.032 -2.086,0.12 l -1.672,0.131 c -0.631,0.055 -1.32,0.121 -2.052,0.199 0.27,-0.271 1.674,-1.659 4.223,-3.77" id="path137" inkscape:connector-curvature="0" style="fill:#a9444c"/>
          <path clip-path="url(#SVGID_4_)" d="m 439.991,574.805 c -0.597,0.941 -1.129,1.891 -1.6,2.84 -0.468,0.952 -1.093,2.563 -1.093,2.563 -0.604,1.673 -1.002,3.347 -1.164,4.995 -1.988,0.815 -3.733,1.637 -5.243,2.414 0.072,-1.659 0.384,-3.345 0.918,-5.036 0,0 0.684,-1.946 1.157,-2.965 0.473,-1.02 1.026,-2.038 1.647,-3.05 1.445,-0.543 3.242,-1.152 5.378,-1.761" id="path139" inkscape:connector-curvature="0" style="fill:#0f5078"/>
          <path clip-path="url(#SVGID_4_)" d="m 433.05,600.125 c 0.071,0.042 2.077,1.233 5.562,2.59 -0.498,0.219 -1.111,0.495 -1.784,0.814 l -1.67,0.834 c -0.598,0.313 -1.196,0.646 -1.759,0.989 -2.455,-1.287 -4.554,-2.872 -6.209,-4.735 0,0 0.015,-0.014 0.045,-0.044 0.731,-0.078 1.421,-0.145 2.052,-0.196 l 1.672,-0.134 c 1.261,-0.088 2.051,-0.118 2.086,-0.12 h 0.005 l 0,0.002 z" id="path141" inkscape:connector-curvature="0" style="fill:#b72e2d"/>
          <path clip-path="url(#SVGID_4_)" d="m 435.228,572.74 c -0.048,0.049 -0.095,0.097 -0.146,0.148 l 0,0 c -1.655,1.713 -3.281,3.57 -4.858,5.59 -0.371,0.349 -0.714,0.731 -1.031,1.138 0,0 -3.574,1.549 -5.563,5.587 0.666,-2.609 1.865,-5.244 3.543,-7.828 1.458,-0.957 2.886,-1.813 4.124,-2.525 l 0.481,-0.271 c 2.034,-1.145 3.45,-1.839 3.45,-1.839" id="path143" inkscape:connector-curvature="0" style="fill:#db9535"/>
          <path clip-path="url(#SVGID_4_)" d="m 434.614,576.569 c -0.621,1.009 -1.175,2.027 -1.647,3.044 -0.474,1.021 -1.157,2.968 -1.157,2.968 -0.534,1.69 -0.846,3.375 -0.918,5.036 l 0,0 c -2.221,1.141 -3.934,2.194 -5.172,3.027 -0.067,-1.386 0.037,-2.794 0.309,-4.215 0,0 0.911,-3.936 3.166,-6.816 0.315,-0.403 0.658,-0.786 1.029,-1.135 h 0.001 c 0.066,-0.038 1.555,-0.844 4.389,-1.909" id="path145" inkscape:connector-curvature="0" style="fill:#0f5078"/>
          <path clip-path="url(#SVGID_4_)" d="m 423.632,585.203 c 1.986,-4.038 5.563,-5.587 5.563,-5.587 -2.255,2.878 -3.166,6.813 -3.166,6.813 -0.271,1.421 -0.376,2.829 -0.309,4.215 -1.669,1.125 -2.471,1.847 -2.471,1.847 -0.394,-2.362 -0.25,-4.815 0.383,-7.288" id="path147" inkscape:connector-curvature="0" style="fill:#164860"/>
        </g>
      </g>
      <path d="m 484.928,556.946 c -0.147,-0.119 -0.186,-0.252 -0.186,-0.252 0,0 0.097,-0.078 0.24,-0.178 0.145,-0.1 0.34,-0.218 0.542,-0.324 0.398,-0.214 0.813,-0.37 0.813,-0.37 0,0 -0.338,0.288 -0.626,0.61 -0.146,0.161 -0.282,0.329 -0.373,0.456 -0.093,0.129 -0.144,0.212 -0.144,0.212 0,0 -0.124,-0.037 -0.266,-0.154" id="path149" inkscape:connector-curvature="0" style="fill:#00000d"/>
      <path d="m 486.389,558.64 c 0,0 0.083,-0.141 0.214,-0.335 0.129,-0.194 0.308,-0.441 0.497,-0.676 0.193,-0.242 0.397,-0.467 0.557,-0.63 0.08,-0.083 0.151,-0.149 0.199,-0.193 0.044,-0.044 0.064,-0.069 0.064,-0.069 0,0 -0.015,0.031 -0.045,0.081 -0.033,0.053 -0.075,0.129 -0.129,0.22 -0.102,0.186 -0.234,0.44 -0.353,0.699 -0.036,0.082 -0.071,0.161 -0.106,0.243 -0.075,0.181 -0.144,0.354 -0.199,0.499 -0.054,0.178 -0.089,0.305 -0.104,0.332 -0.046,0.062 -0.108,0.125 -0.161,0.13 -0.019,0 -0.08,-0.009 -0.151,-0.047 -0.035,-0.012 -0.068,-0.03 -0.102,-0.05 -0.133,-0.09 -0.181,-0.204 -0.181,-0.204" id="path151" inkscape:connector-curvature="0" style="fill:#00000d"/>
      <path d="m 488.307,560.771 c -0.184,-0.04 -0.27,-0.185 -0.27,-0.185 0,0 0.271,-0.789 0.64,-1.523 0.178,-0.369 0.382,-0.726 0.541,-0.985 0.083,-0.132 0.155,-0.237 0.205,-0.31 0.052,-0.072 0.081,-0.114 0.081,-0.114 0,0 -0.021,0.047 -0.058,0.127 -0.036,0.081 -0.085,0.198 -0.141,0.34 -0.111,0.279 -0.24,0.662 -0.345,1.049 -0.11,0.388 -0.196,0.778 -0.248,1.071 -0.058,0.295 -0.086,0.488 -0.086,0.488 0,0 -0.136,0.082 -0.319,0.042" id="path153" inkscape:connector-curvature="0" style="fill:#00000d"/>
      <path d="m 500.451,560.364 c -0.048,0.003 -0.1,-0.01 -0.151,-0.015 -0.054,-0.004 -0.109,-0.021 -0.166,-0.033 -0.109,-0.029 -0.224,-0.073 -0.332,-0.124 -0.218,-0.106 -0.412,-0.249 -0.547,-0.362 -0.056,-0.05 -0.102,-0.091 -0.134,-0.127 l 0.58,-0.964 0.028,-0.034 -0.022,-0.067 -0.353,-1.102 -0.049,-0.089 -0.075,-0.034 -4.583,-2.062 -1.037,-1.354 -0.039,-0.047 -0.077,-0.024 c -3.624,-1.101 -7.39,-1.667 -11.162,-1.844 -1.884,-0.091 -3.773,-0.081 -5.659,0.015 -1.881,0.095 -3.764,0.27 -5.631,0.528 -3.738,0.516 -7.428,1.333 -11.038,2.42 -1.806,0.544 -3.588,1.151 -5.348,1.828 -1.761,0.674 -3.493,1.415 -5.197,2.221 -1.704,0.808 -3.376,1.676 -5.009,2.619 -1.633,0.94 -3.226,1.949 -4.772,3.029 -1.543,1.079 -3.037,2.233 -4.466,3.46 -1.43,1.229 -2.797,2.532 -4.073,3.918 -1.28,1.386 -2.468,2.856 -3.538,4.41 -1.064,1.555 -2.008,3.197 -2.769,4.924 -0.762,1.729 -1.335,3.542 -1.643,5.405 -0.309,1.864 -0.329,3.779 -0.021,5.643 l 0,0 0.021,0.143 0.11,-0.096 c 0.634,-0.549 1.316,-1.045 2.005,-1.528 0.692,-0.479 1.4,-0.938 2.118,-1.379 0.72,-0.435 1.446,-0.862 2.188,-1.265 0.737,-0.406 1.487,-0.795 2.242,-1.168 0.756,-0.374 1.519,-0.734 2.288,-1.079 0.385,-0.175 0.77,-0.343 1.159,-0.506 0.388,-0.166 0.772,-0.334 1.165,-0.488 0.78,-0.322 1.568,-0.623 2.356,-0.92 0.793,-0.285 1.585,-0.579 2.388,-0.839 0.797,-0.276 1.601,-0.526 2.408,-0.773 0.808,-0.246 1.616,-0.478 2.431,-0.705 0.815,-0.215 1.627,-0.443 2.446,-0.635 l 1.23,-0.3 1.234,-0.273 c 0.821,-0.194 1.652,-0.349 2.479,-0.516 0.827,-0.17 1.659,-0.304 2.489,-0.458 0.831,-0.142 1.665,-0.265 2.497,-0.397 l 0.03,-0.005 c -0.054,0.024 -0.109,0.052 -0.162,0.075 -1.035,0.498 -2.069,0.994 -3.094,1.509 -1.024,0.516 -2.048,1.034 -3.059,1.576 -1.02,0.526 -2.02,1.087 -3.029,1.637 -0.997,0.567 -2,1.126 -2.984,1.712 -0.995,0.579 -1.97,1.184 -2.946,1.787 l -1.457,0.92 -1.445,0.943 c -0.958,0.633 -1.91,1.276 -2.851,1.935 -0.942,0.659 -1.876,1.331 -2.804,2.016 -0.918,0.688 -1.833,1.389 -2.731,2.108 -0.904,0.717 -1.79,1.452 -2.666,2.207 -0.877,0.756 -1.728,1.513 -2.578,2.353 l -0.323,0.336 -0.157,0.188 0.457,0.503 c 2.17,2.393 4.892,4.176 7.768,5.474 2.886,1.307 5.941,2.145 9.027,2.671 3.089,0.526 6.218,0.731 9.334,0.692 3.12,-0.036 6.229,-0.319 9.303,-0.805 3.073,-0.488 6.109,-1.181 9.088,-2.06 1.488,-0.438 2.967,-0.921 4.425,-1.451 1.458,-0.53 2.902,-1.095 4.329,-1.698 2.859,-1.199 5.647,-2.579 8.312,-4.16 2.663,-1.589 5.191,-3.4 7.543,-5.416 l 0,0 1.269,-1.025 -1.36,0.908 -1.475,0.99 c -0.498,0.313 -0.991,0.643 -1.499,0.948 -0.507,0.307 -1.01,0.619 -1.525,0.905 l -0.77,0.443 -0.779,0.424 c -1.04,0.567 -2.101,1.09 -3.168,1.599 -1.075,0.489 -2.153,0.971 -3.255,1.397 -4.396,1.736 -9.008,2.916 -13.696,3.459 -2.342,0.265 -4.699,0.392 -7.054,0.346 -2.357,-0.04 -4.708,-0.234 -7.036,-0.583 -2.327,-0.352 -4.629,-0.851 -6.889,-1.509 -1.124,-0.327 -2.244,-0.693 -3.341,-1.104 -0.853,-0.319 -1.713,-0.668 -2.533,-1.047 0.599,-0.47 1.208,-0.937 1.814,-1.397 0.814,-0.614 1.64,-1.215 2.464,-1.814 1.655,-1.194 3.33,-2.36 5.023,-3.496 0.847,-0.569 1.701,-1.127 2.557,-1.682 0.859,-0.553 1.718,-1.098 2.59,-1.634 0.867,-0.534 1.736,-1.067 2.615,-1.582 0.876,-0.522 1.762,-1.025 2.649,-1.531 0.892,-0.493 1.778,-0.993 2.682,-1.465 0.895,-0.485 1.804,-0.943 2.711,-1.408 0.915,-0.444 1.825,-0.903 2.753,-1.323 0.916,-0.438 1.85,-0.84 2.781,-1.248 0.469,-0.202 0.939,-0.389 1.409,-0.583 0.471,-0.199 0.94,-0.384 1.417,-0.562 0.943,-0.374 1.903,-0.705 2.86,-1.042 0.479,-0.163 0.966,-0.311 1.448,-0.467 0.48,-0.159 0.968,-0.299 1.455,-0.436 0.972,-0.291 1.955,-0.519 2.939,-0.758 l 0.379,-0.097 0.073,-0.337 c 0.038,-0.161 0.081,-0.32 0.107,-0.484 0.03,-0.162 0.054,-0.325 0.07,-0.491 0.037,-0.328 0.043,-0.658 0.028,-0.985 -0.032,-0.655 -0.161,-1.301 -0.364,-1.91 -0.199,-0.613 -0.479,-1.188 -0.804,-1.729 -0.163,-0.271 -0.341,-0.533 -0.529,-0.785 -0.093,-0.128 -0.19,-0.251 -0.294,-0.373 -0.104,-0.126 -0.202,-0.235 -0.33,-0.365 l -0.101,-0.106 -0.141,-0.025 c -0.939,-0.145 -1.874,-0.319 -2.817,-0.445 -0.942,-0.125 -1.884,-0.263 -2.83,-0.354 l -1.417,-0.151 -1.422,-0.118 c -0.949,-0.09 -1.896,-0.123 -2.849,-0.179 -0.947,-0.032 -1.897,-0.071 -2.85,-0.081 l -1.429,-0.009 c -0.474,-0.003 -0.947,0.009 -1.423,0.014 -0.951,0.005 -1.9,0.056 -2.851,0.083 -0.948,0.06 -1.9,0.1 -2.844,0.183 -0.949,0.069 -1.896,0.172 -2.838,0.269 -0.944,0.114 -1.889,0.227 -2.83,0.362 -0.47,0.063 -0.938,0.138 -1.409,0.211 -0.469,0.072 -0.937,0.149 -1.404,0.232 -0.936,0.16 -1.87,0.34 -2.801,0.53 -0.927,0.19 -1.857,0.396 -2.779,0.62 -0.414,0.099 -0.828,0.201 -1.24,0.309 2.046,-2.833 4.575,-5.313 7.435,-7.347 3.039,-2.17 6.422,-3.852 9.948,-5.128 3.531,-1.276 7.213,-2.15 10.938,-2.708 1.863,-0.277 3.74,-0.473 5.619,-0.589 0.943,-0.057 1.888,-0.097 2.829,-0.109 0.856,-0.014 1.724,-0.008 2.572,0.029 0.083,0.167 0.166,0.333 0.255,0.5 0.126,0.238 0.256,0.473 0.392,0.705 0.267,0.47 0.555,0.93 0.868,1.375 0.317,0.447 0.656,0.884 1.052,1.292 0.201,0.205 0.414,0.401 0.654,0.585 0.118,0.092 0.249,0.18 0.384,0.258 l 0.212,0.116 0.231,0.103 0,0 0.271,0.062 0.083,-0.045 c 0.104,-0.058 0.24,-0.111 0.368,-0.158 0.131,-0.046 0.261,-0.089 0.397,-0.131 0.265,-0.081 0.537,-0.13 0.814,-0.178 0.272,-0.048 0.554,-0.076 0.83,-0.077 0.139,-0.005 0.277,0 0.417,0.007 0.137,0.017 0.279,0.022 0.407,0.049 0.133,0.021 0.268,0.039 0.408,0.085 l 0.203,0.057 0.205,0.064 c 0.276,0.082 0.549,0.184 0.821,0.275 l 0.804,0.316 c 0.135,0.053 0.266,0.12 0.396,0.177 0.134,0.062 0.265,0.123 0.393,0.194 l 0,0 0.053,0.016 h 0.04 l 2.665,-0.03 0,0 h 0.124 l 0.057,-0.098 0.59,-0.982 c 0.006,0.003 0.006,0.003 0.012,0.003 0.065,0.022 0.159,0.046 0.271,0.069 0.224,0.048 0.52,0.089 0.816,0.075 0.15,-0.01 0.297,-0.027 0.431,-0.062 0.068,-0.021 0.131,-0.031 0.189,-0.056 0.058,-0.026 0.111,-0.042 0.159,-0.067 0.192,-0.093 0.284,-0.196 0.288,-0.189 0.001,-0.009 -0.128,0.038 -0.319,0.027 m -18.686,-7.655 c 0.029,0.062 0.061,0.13 0.088,0.197 0.087,0.189 0.161,0.383 0.195,0.477 -0.515,-0.011 -1.033,-0.017 -1.549,-0.015 -1.191,0.004 -2.38,0.045 -3.569,0.115 -0.029,-0.125 -0.081,-0.335 -0.146,-0.548 -0.016,-0.048 -0.029,-0.095 -0.046,-0.141 1.673,-0.101 3.352,-0.132 5.027,-0.085 m -5.28,0.105 c 0.043,0.062 0.087,0.126 0.132,0.197 0.112,0.177 0.218,0.36 0.278,0.473 -1.567,0.094 -3.134,0.241 -4.693,0.442 -0.113,0.016 -0.228,0.034 -0.34,0.052 -0.053,-0.136 -0.136,-0.342 -0.234,-0.547 -0.021,-0.037 -0.038,-0.073 -0.058,-0.112 1.631,-0.23 3.273,-0.401 4.915,-0.505 m -5.341,0.566 c 0.059,-0.01 0.119,-0.017 0.178,-0.026 0.048,0.059 0.101,0.116 0.152,0.177 0.136,0.165 0.261,0.335 0.347,0.454 -1.611,0.216 -3.219,0.497 -4.813,0.833 -0.067,-0.138 -0.165,-0.336 -0.281,-0.53 -0.019,-0.029 -0.036,-0.057 -0.056,-0.089 1.484,-0.32 2.975,-0.596 4.473,-0.819 m -4.707,0.874 c 0.047,0.045 0.095,0.095 0.142,0.145 0.148,0.152 0.284,0.311 0.38,0.43 -1.691,0.356 -3.368,0.777 -5.028,1.269 -0.139,-0.14 -0.334,-0.323 -0.546,-0.491 -0.016,-0.015 -0.032,-0.027 -0.049,-0.039 1.682,-0.502 3.386,-0.94 5.101,-1.314 m -8.824,2.517 c 0.872,-0.306 1.754,-0.604 2.644,-0.881 0.271,-0.084 0.544,-0.166 0.816,-0.246 0.069,0.035 0.139,0.07 0.207,0.109 0.222,0.12 0.43,0.255 0.588,0.36 -1.602,0.479 -3.183,1.021 -4.745,1.622 -0.009,-0.005 -0.015,-0.011 -0.026,-0.018 -0.189,-0.129 -0.45,-0.288 -0.721,-0.438 -0.021,-0.012 -0.042,-0.023 -0.064,-0.035 l 1.301,-0.473 z m -2.62,0.985 c 0.343,-0.139 0.693,-0.272 1.04,-0.403 0.087,0.03 0.178,0.061 0.267,0.095 0.279,0.101 0.55,0.218 0.756,0.317 -0.314,0.118 -0.628,0.236 -0.94,0.361 -1.122,0.454 -2.229,0.945 -3.321,1.461 -0.008,-0.002 -0.013,-0.007 -0.021,-0.009 -0.221,-0.131 -0.521,-0.29 -0.829,-0.433 -0.036,-0.018 -0.073,-0.034 -0.112,-0.051 1.042,-0.471 2.094,-0.918 3.16,-1.338 m 3.339,20.876 c -0.395,0.056 -0.788,0.109 -1.182,0.16 0.009,-0.272 0.03,-0.605 0.063,-0.94 0.067,-0.797 0.208,-1.594 0.208,-1.594 0,0 -0.286,0.756 -0.508,1.536 -0.112,0.384 -0.207,0.772 -0.274,1.069 -0.279,0.042 -0.56,0.079 -0.836,0.12 -0.84,0.137 -1.681,0.255 -2.518,0.407 -0.404,0.074 -0.811,0.145 -1.213,0.219 0.026,-0.316 0.067,-0.694 0.124,-1.073 0.131,-0.923 0.349,-1.838 0.349,-1.838 0,0 -0.366,0.864 -0.645,1.77 -0.146,0.443 -0.264,0.896 -0.347,1.241 -0.261,0.047 -0.519,0.094 -0.776,0.15 l -1.252,0.249 -1.246,0.278 c -0.441,0.094 -0.88,0.195 -1.32,0.305 0.04,-0.35 0.098,-0.762 0.171,-1.172 0.181,-1.04 0.471,-2.063 0.471,-2.063 0,0 -0.435,0.972 -0.762,1.987 -0.165,0.491 -0.305,0.99 -0.402,1.375 -0.216,0.053 -0.428,0.106 -0.643,0.158 -0.825,0.212 -1.65,0.429 -2.472,0.658 -0.51,0.147 -1.021,0.298 -1.532,0.449 0.048,-0.372 0.113,-0.806 0.195,-1.238 0.211,-1.141 0.555,-2.259 0.555,-2.259 0,0 -0.485,1.063 -0.847,2.184 -0.176,0.524 -0.321,1.056 -0.428,1.476 -0.13,0.041 -0.263,0.078 -0.396,0.123 -0.818,0.245 -1.624,0.528 -2.436,0.8 -0.628,0.223 -1.257,0.449 -1.882,0.687 0.041,-0.379 0.101,-0.808 0.179,-1.237 0.207,-1.219 0.568,-2.41 0.568,-2.41 0,0 -0.503,1.137 -0.862,2.339 -0.164,0.53 -0.299,1.063 -0.4,1.504 -0.002,0 -0.009,0 -0.012,0.002 -0.402,0.148 -0.797,0.313 -1.195,0.472 -0.398,0.157 -0.795,0.321 -1.188,0.491 -0.789,0.334 -1.574,0.688 -2.353,1.051 -0.013,0.006 -0.028,0.014 -0.041,0.021 0.022,-0.34 0.056,-0.709 0.105,-1.08 0.147,-1.225 0.458,-2.427 0.458,-2.427 0,0 -0.455,1.153 -0.756,2.371 -0.123,0.477 -0.224,0.959 -0.298,1.368 -0.599,0.289 -1.194,0.582 -1.784,0.894 -0.765,0.396 -1.521,0.819 -2.27,1.25 -0.267,0.154 -0.528,0.316 -0.792,0.479 -0.005,-0.158 -0.005,-0.317 -0.005,-0.479 -0.003,-1.017 0.122,-2.038 0.122,-2.038 0,0 -0.272,0.991 -0.426,2.015 -0.04,0.255 -0.073,0.511 -0.099,0.751 -0.342,0.212 -0.679,0.43 -1.017,0.653 -0.08,0.055 -0.163,0.11 -0.245,0.166 -0.04,-0.957 0.156,-1.625 0.354,-2.919 0.264,-1.729 0.782,-3.436 1.484,-5.082 0.92,-2.15 2.143,-4.184 3.56,-6.098 0.861,-0.566 1.657,-1.063 1.657,-1.063 0,0 -0.654,0.34 -1.431,0.764 0.691,-0.909 1.417,-1.796 2.188,-2.645 0.873,-0.974 1.798,-1.908 2.761,-2.805 1.145,-0.643 2.178,-1.17 2.178,-1.17 0,0 -0.814,0.355 -1.811,0.829 0.265,-0.241 0.53,-0.482 0.797,-0.72 1.388,-1.218 2.84,-2.361 4.345,-3.438 1.152,-0.826 2.332,-1.609 3.541,-2.355 0.683,-0.188 1.232,-0.322 1.232,-0.322 0,0 -0.406,0.06 -0.96,0.157 0.281,-0.17 0.56,-0.342 0.844,-0.51 1.594,-0.944 3.235,-1.819 4.904,-2.634 0.553,-0.269 1.109,-0.529 1.668,-0.784 0.106,0.031 0.216,0.064 0.325,0.096 0.312,0.098 0.618,0.21 0.85,0.306 -1.798,0.854 -3.553,1.795 -5.262,2.818 -0.235,0.049 -0.517,0.106 -0.804,0.174 -0.67,0.153 -1.332,0.329 -1.332,0.329 0,0 0.682,-0.086 1.363,-0.148 0.067,-0.006 0.138,-0.015 0.204,-0.019 -1.813,1.11 -3.573,2.311 -5.267,3.6 -0.386,0.298 -0.769,0.604 -1.151,0.91 -0.323,0.146 -0.69,0.32 -1.059,0.501 -0.997,0.484 -1.983,0.997 -1.983,0.997 0,0 1.024,-0.432 2.06,-0.83 0.096,-0.037 0.192,-0.076 0.29,-0.112 -0.472,0.388 -0.941,0.777 -1.397,1.178 -0.535,0.451 -1.042,0.933 -1.562,1.394 -0.502,0.488 -1.021,0.955 -1.51,1.452 -0.461,0.461 -0.923,0.919 -1.369,1.393 -0.182,0.107 -0.373,0.22 -0.563,0.335 -0.813,0.484 -1.61,0.989 -1.61,0.989 0,0 0.843,-0.426 1.696,-0.827 0.006,-0.003 0.009,-0.007 0.014,-0.008 -0.357,0.379 -0.707,0.763 -1.057,1.149 -0.933,1.035 -1.827,2.109 -2.706,3.195 l -1.878,2.375 2.682,-1.432 c 0.89,-0.475 1.869,-0.914 2.836,-1.321 0.147,-0.06 0.296,-0.117 0.443,-0.178 -0.073,0.166 -0.15,0.34 -0.225,0.516 -0.334,0.775 -0.616,1.564 -0.616,1.564 0,0 0.419,-0.725 0.884,-1.422 0.228,-0.345 0.464,-0.682 0.646,-0.932 0.603,-0.239 1.21,-0.471 1.823,-0.688 0.972,-0.342 1.947,-0.666 2.936,-0.967 -0.085,0.182 -0.174,0.378 -0.259,0.573 -0.328,0.728 -0.605,1.467 -0.605,1.467 0,0 0.416,-0.673 0.867,-1.316 0.241,-0.35 0.489,-0.686 0.668,-0.926 0.818,-0.243 1.639,-0.477 2.469,-0.694 0.511,-0.136 1.023,-0.268 1.541,-0.39 0.148,-0.037 0.302,-0.073 0.453,-0.109 -0.095,0.209 -0.2,0.439 -0.305,0.677 -0.313,0.722 -0.581,1.454 -0.581,1.454 0,0 0.405,-0.669 0.847,-1.307 0.261,-0.376 0.529,-0.741 0.708,-0.981 0.141,-0.032 0.283,-0.066 0.425,-0.096 1.033,-0.237 2.076,-0.445 3.116,-0.649 l 0.72,-0.129 c -0.095,0.217 -0.201,0.467 -0.305,0.72 -0.285,0.692 -0.526,1.398 -0.526,1.398 0,0 0.381,-0.639 0.796,-1.256 0.254,-0.383 0.521,-0.752 0.688,-0.98 l 0.195,-0.036 1.571,-0.257 c 0.523,-0.087 1.051,-0.158 1.579,-0.231 0.265,-0.037 0.527,-0.075 0.794,-0.113 -0.092,0.225 -0.196,0.49 -0.294,0.762 -0.249,0.668 -0.457,1.348 -0.457,1.348 0,0 0.348,-0.618 0.729,-1.215 0.245,-0.384 0.498,-0.757 0.651,-0.974 0.051,-0.008 0.102,-0.014 0.153,-0.019 l 1.585,-0.19 1.585,-0.159 c 0.247,-0.024 0.497,-0.051 0.746,-0.072 -0.081,0.231 -0.178,0.513 -0.271,0.8 -0.211,0.648 -0.379,1.309 -0.379,1.309 0,0 0.311,-0.604 0.655,-1.187 0.229,-0.39 0.47,-0.762 0.604,-0.973 0.61,-0.047 1.219,-0.089 1.822,-0.139 0.741,-0.039 1.479,-0.091 2.218,-0.127 -0.069,0.234 -0.158,0.542 -0.235,0.849 -0.172,0.638 -0.301,1.282 -0.301,1.282 0,0 0.273,-0.596 0.583,-1.173 0.209,-0.397 0.429,-0.78 0.551,-0.983 0.123,-0.005 0.248,-0.011 0.371,-0.012 1.063,-0.042 2.126,-0.081 3.19,-0.087 0.162,-0.002 0.325,-10e-4 0.491,-0.002 -0.057,0.23 -0.128,0.546 -0.187,0.863 -0.121,0.614 -0.203,1.231 -0.203,1.231 0,0 0.229,-0.582 0.491,-1.139 0.182,-0.391 0.375,-0.766 0.477,-0.962 0.708,-0.007 1.416,0 2.123,0.006 0.658,-0.003 1.316,0.019 1.978,0.038 -0.039,0.236 -0.091,0.582 -0.129,0.933 -0.061,0.481 -0.09,0.959 -0.1,1.142 -0.527,0.18 -1.053,0.362 -1.576,0.548 -1.075,0.397 -2.156,0.782 -3.221,1.201 -1.068,0.413 -2.137,0.831 -3.189,1.281 l -1.58,0.667 -0.712,0.311 c -0.006,-0.152 -0.011,-0.326 -0.012,-0.505 -0.005,-0.473 0.018,-0.951 0.018,-0.951 0,0 -0.172,0.446 -0.315,0.907 -0.101,0.307 -0.188,0.615 -0.235,0.79 l -0.319,0.138 c -0.321,0.141 -0.642,0.283 -0.961,0.428 l -2.121,0.244 z m 6.369,-1.218 c -0.333,0.06 -0.664,0.124 -0.975,0.188 l 1.07,-0.494 c 0.593,-0.276 1.19,-0.544 1.787,-0.813 0.482,-0.102 1.054,-0.208 1.622,-0.305 0.584,-0.099 1.169,-0.188 1.666,-0.257 -0.813,0.358 -1.619,0.72 -2.428,1.086 -0.154,0.072 -0.309,0.147 -0.466,0.219 -0.377,0.057 -1.329,0.199 -2.276,0.376 m 1.377,0.049 c -0.954,0.443 -1.902,0.898 -2.848,1.359 -0.112,0.01 -0.269,0.025 -0.456,0.045 -0.391,0.038 -0.906,0.092 -1.426,0.154 -0.27,0.032 -0.541,0.067 -0.792,0.104 0.095,-0.046 0.188,-0.093 0.284,-0.138 l 0.094,-0.014 c 0.091,-0.012 0.167,-0.065 0.219,-0.138 0.182,-0.09 0.362,-0.179 0.545,-0.271 l 1.543,-0.74 0.15,-0.069 c 0.401,-0.057 0.867,-0.113 1.335,-0.163 0.474,-0.049 0.948,-0.096 1.352,-0.129 m 2.093,-1.652 c -0.386,0.09 -0.769,0.185 -1.126,0.278 0.292,-0.131 0.582,-0.261 0.874,-0.39 0.612,-0.282 1.234,-0.545 1.852,-0.809 0.574,-0.158 1.229,-0.325 1.887,-0.476 0.842,-0.194 1.688,-0.358 2.369,-0.474 -0.063,0.027 -0.129,0.055 -0.191,0.081 -0.951,0.396 -1.897,0.803 -2.842,1.216 -0.15,0.023 -0.437,0.074 -0.801,0.144 -0.553,0.104 -1.291,0.259 -2.022,0.43 m 3.443,-1.572 c -0.337,0.095 -0.677,0.191 -1.003,0.29 0.154,-0.064 0.304,-0.128 0.455,-0.195 l 2.428,-1.019 c 0.69,-0.227 1.521,-0.479 2.364,-0.69 1.034,-0.267 2.078,-0.475 2.868,-0.604 0.054,-0.008 0.106,-0.016 0.16,-0.026 -0.61,0.234 -1.218,0.47 -1.825,0.712 -0.551,0.218 -1.099,0.447 -1.653,0.672 l 0,0 c 0,0 -0.481,0.075 -1.197,0.225 -0.717,0.145 -1.662,0.371 -2.597,0.635 m 4.196,-1.788 c -1.026,0.304 -2.034,0.67 -2.78,0.962 -0.012,0.003 -0.022,0.007 -0.033,0.011 -0.136,0.048 -0.275,0.093 -0.413,0.142 0.059,-0.185 0.202,-0.628 0.371,-1.063 0.152,-0.401 0.318,-0.789 0.404,-0.985 0.216,0.007 0.43,0.015 0.646,0.021 1.063,0.031 2.126,0.102 3.189,0.15 l 1.214,0.087 c -0.755,0.162 -1.681,0.394 -2.598,0.675 m -13.887,35.833 c -0.357,0.05 -0.716,0.098 -1.077,0.142 l -0.39,-0.655 0.154,0.685 c -2.187,0.262 -4.384,0.42 -6.583,0.457 -0.038,-0.09 -0.079,-0.188 -0.121,-0.287 -0.143,-0.35 -0.265,-0.71 -0.265,-0.71 0,0 0.033,0.376 0.09,0.758 0.012,0.083 0.024,0.166 0.039,0.244 -0.34,0.002 -0.681,0.006 -1.02,0.005 -2.553,-0.012 -5.104,-0.195 -7.62,-0.582 0.005,-0.095 0.017,-0.194 0.028,-0.296 0.043,-0.412 0.131,-0.823 0.131,-0.823 0,0 -0.175,0.384 -0.309,0.785 -0.035,0.099 -0.068,0.203 -0.096,0.299 -0.419,-0.066 -0.841,-0.137 -1.258,-0.216 -2.996,-0.563 -5.935,-1.431 -8.667,-2.724 -0.246,-0.114 -0.487,-0.237 -0.729,-0.361 l 0.926,-0.641 -1.168,0.52 c -2.14,-1.112 -4.112,-2.521 -5.748,-4.241 0.002,-0.002 0.002,-0.003 0.002,-0.003 l 1.043,-0.266 -0.722,-0.04 c 0.528,-0.503 1.078,-1.003 1.626,-1.489 0.768,-0.678 1.55,-1.344 2.346,-1.994 l 1.108,-0.286 -0.734,-0.023 c 0.836,-0.686 1.688,-1.354 2.548,-2.018 0.673,-0.517 1.355,-1.03 2.042,-1.536 l 1.072,-0.295 -0.657,-0.011 c 0.092,-0.067 0.181,-0.136 0.273,-0.201 0.92,-0.669 1.851,-1.324 2.785,-1.974 l 1.412,-0.959 0.738,-0.483 1.038,-0.306 -0.573,-0.002 0.226,-0.147 c 0.956,-0.618 1.914,-1.236 2.884,-1.834 0.933,-0.59 1.883,-1.149 2.827,-1.718 l 1.06,-0.297 -0.513,-0.022 c 0.835,-0.484 1.67,-0.975 2.516,-1.44 0.989,-0.562 1.997,-1.102 3.004,-1.64 0.244,-0.131 0.493,-0.259 0.737,-0.39 l 1.172,-0.254 -0.525,-0.083 c 0.549,-0.284 1.1,-0.566 1.653,-0.851 0.556,-0.272 1.11,-0.549 1.665,-0.825 0.324,-0.021 0.696,-0.041 1.069,-0.049 0.4,-0.015 0.802,-0.023 1.146,-0.03 -1.07,0.528 -2.136,1.066 -3.196,1.613 -0.132,0.008 -0.431,0.029 -0.729,0.06 -0.395,0.042 -0.782,0.111 -0.782,0.111 0,0 0.384,0.082 0.757,0.193 0.012,0.002 0.022,0.007 0.034,0.008 -1.209,0.634 -2.412,1.276 -3.604,1.938 -0.761,0.425 -1.519,0.858 -2.273,1.297 l -1.647,0.331 0.87,0.119 c -1.896,1.115 -3.764,2.276 -5.594,3.493 l -1.303,0.34 0.669,0.089 c -0.857,0.577 -1.704,1.162 -2.54,1.77 -0.773,0.562 -1.539,1.137 -2.295,1.725 l -1.138,0.322 0.609,0.085 c -0.905,0.717 -1.794,1.453 -2.664,2.212 -0.462,0.401 -0.912,0.814 -1.359,1.23 l -1.275,0.332 0.822,0.102 c -1.098,1.049 -2.158,2.142 -3.156,3.293 l -0.038,0.044 -1.722,0.361 1.698,0.157 0.168,0.096 c 1.245,0.703 2.501,1.285 3.787,1.837 0.446,0.188 0.892,0.369 1.342,0.546 l -1.121,0.65 1.479,-0.511 c 0.732,0.285 1.469,0.553 2.211,0.802 1.771,0.605 3.576,1.117 5.396,1.547 l -0.334,1.053 0.621,-0.985 c 0.796,0.185 1.594,0.354 2.397,0.504 1.555,0.298 3.119,0.527 4.69,0.696 0.027,0.104 0.059,0.229 0.098,0.354 0.083,0.286 0.184,0.565 0.184,0.565 0,0 -0.011,-0.296 -0.003,-0.587 0.003,-0.106 0.006,-0.211 0.012,-0.305 2.162,0.223 4.334,0.325 6.504,0.3 l 0.344,0.715 -0.054,-0.72 c 1.621,-0.024 3.24,-0.117 4.852,-0.278 0.518,-0.055 1.033,-0.116 1.549,-0.184 0.064,0.127 0.184,0.345 0.316,0.556 0.06,0.095 0.122,0.186 0.178,0.268 -1.767,0.386 -3.552,0.709 -5.345,0.963 m 9.027,-1.867 c -1.183,0.323 -2.379,0.618 -3.581,0.88 -0.036,-0.099 -0.077,-0.21 -0.114,-0.322 -0.063,-0.194 -0.113,-0.386 -0.146,-0.52 2.053,-0.281 4.087,-0.673 6.093,-1.178 0.012,0.016 0.023,0.03 0.035,0.047 0.056,0.076 0.137,0.169 0.22,0.259 0.023,0.027 0.048,0.054 0.075,0.077 -0.859,0.268 -1.717,0.52 -2.582,0.757 m 4.413,-1.351 c -0.563,0.191 -1.132,0.375 -1.7,0.556 -0.019,-0.045 -0.035,-0.09 -0.054,-0.137 -0.039,-0.104 -0.07,-0.204 -0.095,-0.284 1.582,-0.407 3.146,-0.881 4.688,-1.418 0.051,0.042 0.13,0.11 0.22,0.172 -1.014,0.385 -2.033,0.759 -3.059,1.111 m 18.082,-9.129 c 0.16,-0.106 0.322,-0.214 0.484,-0.322 -1.877,1.42 -3.846,2.718 -5.888,3.882 -0.08,0.045 -0.161,0.087 -0.24,0.134 0,-0.008 0,-0.017 0,-0.021 -0.002,-0.088 0.012,-0.161 0.016,-0.157 0,0 -0.01,0.005 -0.023,0.012 0.329,-0.184 0.657,-0.371 0.982,-0.563 l 0.898,-0.521 0.885,-0.548 c 0.592,-0.356 1.17,-0.745 1.749,-1.124 0.385,-0.25 0.762,-0.514 1.137,-0.772 m -3.715,2.243 0.779,-0.435 0.764,-0.457 c 0.122,-0.07 0.244,-0.145 0.362,-0.218 -0.37,0.234 -0.74,0.472 -1.119,0.689 l -0.892,0.535 -0.9,0.513 c -0.333,0.189 -0.671,0.374 -1.008,0.556 l -0.128,-0.043 c 0.722,-0.368 1.44,-0.742 2.142,-1.14 m -2.194,1.465 c 0.032,0.021 0.071,0.043 0.115,0.063 0,0 0.002,0.003 0.005,0.003 -1.415,0.786 -2.861,1.516 -4.328,2.197 -0.005,-0.012 -0.009,-0.024 -0.012,-0.036 -0.018,-0.044 -0.03,-0.087 -0.044,-0.123 0.618,-0.284 1.231,-0.578 1.843,-0.876 0.803,-0.404 1.604,-0.82 2.39,-1.251 0.007,0.006 0.019,0.014 0.031,0.023 m -4.217,1.638 c 1.105,-0.442 2.181,-0.942 3.253,-1.451 0.288,-0.143 0.572,-0.287 0.856,-0.433 l 0.018,0.105 c -0.794,0.422 -1.597,0.828 -2.402,1.223 -0.619,0.29 -1.244,0.579 -1.87,0.854 l -0.169,-0.173 c 0.104,-0.042 0.211,-0.079 0.314,-0.125 m -0.158,0.701 c -1.139,0.523 -2.294,1.017 -3.46,1.479 -0.369,0.146 -0.744,0.284 -1.117,0.43 -0.006,-0.017 -0.012,-0.032 -0.019,-0.048 -0.024,-0.059 -0.046,-0.117 -0.064,-0.168 0.951,-0.337 1.894,-0.698 2.824,-1.087 0.557,-0.224 1.107,-0.464 1.654,-0.713 0.043,0.026 0.109,0.065 0.182,0.107 m -0.277,-0.53 0.015,0.249 c -0.549,0.239 -1.098,0.471 -1.654,0.688 -0.944,0.377 -1.897,0.728 -2.857,1.056 l -0.271,-0.313 c 1.613,-0.488 3.205,-1.047 4.767,-1.68 m -4.904,1.717 0.101,0.377 c -1.547,0.518 -3.114,0.966 -4.696,1.35 -0.057,-0.074 -0.136,-0.188 -0.21,-0.31 -0.039,-0.065 -0.074,-0.131 -0.104,-0.192 1.656,-0.331 3.293,-0.743 4.909,-1.225 m -8.416,1.803 c 1.145,-0.15 2.281,-0.339 3.409,-0.563 0.009,0.075 0.017,0.156 0.03,0.241 0.019,0.116 0.046,0.229 0.068,0.318 -1.954,0.463 -3.934,0.819 -5.926,1.066 -0.026,-0.11 -0.067,-0.295 -0.099,-0.484 -0.021,-0.109 -0.034,-0.221 -0.046,-0.315 0.857,-0.072 1.712,-0.156 2.564,-0.263 m 10.22,-34.14 c 0.059,0.008 0.118,0.017 0.179,0.024 0.881,0.113 1.756,0.261 2.638,0.392 0.056,0.068 0.114,0.141 0.167,0.212 0.088,0.112 0.17,0.229 0.248,0.349 0.158,0.232 0.307,0.477 0.441,0.727 0.268,0.5 0.489,1.023 0.636,1.561 0.148,0.535 0.233,1.085 0.228,1.629 10e-4,0.269 -0.019,0.539 -0.06,0.808 -0.02,0.131 -0.047,0.264 -0.076,0.396 -0.005,0.017 -0.011,0.03 -0.015,0.05 -0.422,0.104 -0.843,0.208 -1.265,0.318 -0.028,-0.138 -0.063,-0.285 -0.102,-0.432 -0.151,-0.598 -0.355,-1.173 -0.355,-1.173 0,0 0.06,0.608 0.055,1.212 0,0.174 -0.008,0.345 -0.01,0.503 -0.323,0.087 -0.642,0.177 -0.959,0.272 -0.496,0.141 -0.995,0.286 -1.482,0.453 -0.294,0.099 -0.59,0.19 -0.885,0.288 -0.052,-0.17 -0.115,-0.362 -0.186,-0.55 -0.189,-0.542 -0.426,-1.061 -0.426,-1.061 0,0 0.088,0.563 0.129,1.123 0.019,0.224 0.03,0.446 0.033,0.636 -0.045,0.017 -0.092,0.03 -0.136,0.047 -0.976,0.348 -1.946,0.69 -2.904,1.075 -0.258,0.098 -0.516,0.2 -0.771,0.304 -0.066,-0.162 -0.141,-0.345 -0.22,-0.525 -0.224,-0.515 -0.485,-1.007 -0.485,-1.007 0,0 0.115,0.544 0.191,1.091 0.032,0.221 0.059,0.437 0.076,0.62 -0.075,0.032 -0.152,0.063 -0.225,0.094 -0.476,0.201 -0.953,0.395 -1.424,0.602 -0.708,0.313 -1.414,0.63 -2.116,0.955 -0.074,-0.164 -0.168,-0.355 -0.264,-0.542 -0.254,-0.51 -0.544,-0.991 -0.544,-0.991 0,0 0.148,0.543 0.257,1.091 0.046,0.228 0.087,0.455 0.116,0.645 -0.085,0.04 -0.176,0.078 -0.26,0.119 -0.934,0.434 -1.851,0.9 -2.771,1.356 -0.216,0.111 -0.429,0.22 -0.646,0.331 -0.093,-0.17 -0.199,-0.373 -0.313,-0.569 -0.289,-0.512 -0.606,-0.997 -0.606,-0.997 0,0 0.181,0.552 0.323,1.11 0.065,0.242 0.121,0.483 0.167,0.68 -0.556,0.289 -1.109,0.577 -1.658,0.878 -0.639,0.34 -1.273,0.695 -1.907,1.052 -0.106,-0.179 -0.235,-0.395 -0.372,-0.604 -0.322,-0.513 -0.668,-0.997 -0.668,-0.997 0,0 0.215,0.557 0.394,1.125 0.083,0.257 0.161,0.512 0.217,0.718 -0.119,0.066 -0.237,0.135 -0.359,0.201 -0.888,0.515 -1.777,1.026 -2.655,1.558 -0.343,0.202 -0.682,0.409 -1.02,0.614 -0.144,-0.174 -0.321,-0.395 -0.512,-0.604 -0.41,-0.469 -0.847,-0.896 -0.847,-0.896 0,0 0.319,0.521 0.594,1.065 0.13,0.25 0.248,0.496 0.339,0.698 -0.393,0.239 -0.787,0.486 -1.186,0.729 -0.869,0.546 -1.732,1.101 -2.592,1.658 -0.071,0.05 -0.144,0.097 -0.213,0.144 -0.183,-0.159 -0.426,-0.367 -0.679,-0.56 -0.501,-0.394 -1.034,-0.735 -1.034,-0.735 0,0 0.435,0.459 0.821,0.951 0.176,0.221 0.339,0.445 0.466,0.629 -0.644,0.423 -1.287,0.846 -1.924,1.278 -0.667,0.451 -1.327,0.912 -1.985,1.373 -0.22,-0.125 -0.531,-0.293 -0.853,-0.449 -0.59,-0.289 -1.195,-0.515 -1.195,-0.515 0,0 0.536,0.364 1.03,0.771 0.212,0.172 0.413,0.349 0.577,0.499 -0.876,0.614 -1.745,1.236 -2.608,1.867 -0.347,0.256 -0.696,0.512 -1.042,0.769 -0.243,-0.083 -0.598,-0.202 -0.961,-0.297 -0.639,-0.171 -1.283,-0.283 -1.283,-0.283 0,0 0.602,0.257 1.174,0.567 0.222,0.117 0.435,0.242 0.616,0.354 -0.326,0.243 -0.65,0.484 -0.972,0.73 -0.815,0.626 -1.627,1.25 -2.429,1.902 l -0.004,10e-4 c -0.039,-0.006 -0.077,-0.011 -0.124,-0.017 -0.253,-0.032 -0.588,-0.063 -0.922,-0.083 -0.667,-0.039 -1.334,-0.029 -1.334,-0.029 l 0.007,0.002 h -0.007 c 0,0 0.015,0.003 0.038,0.008 0.143,0.03 0.699,0.158 1.245,0.32 0.213,0.063 0.424,0.131 0.61,0.194 l -0.08,0.063 0.648,0.333 0,0 c 0.046,0.021 0.087,0.038 0.128,0.059 l -0.48,0.317 0.803,-0.164 c 0.955,0.451 1.911,0.825 2.89,1.178 0.909,0.325 1.828,0.619 2.756,0.887 l -0.223,0.396 0.498,-0.317 c 0.13,0.038 0.261,0.075 0.391,0.111 1.977,0.541 3.979,0.96 6,1.272 l -0.116,0.312 0.309,-0.28 c 0.275,0.04 0.548,0.087 0.824,0.126 1.65,0.222 3.311,0.364 4.973,0.434 l -0.001,0.373 0.179,-0.363 c 0.662,0.025 1.323,0.043 1.985,0.044 1.495,0.008 2.991,-0.061 4.48,-0.183 -0.017,0.095 -0.03,0.204 -0.046,0.313 -0.028,0.199 -0.044,0.404 -0.054,0.521 -0.542,0.063 -1.081,0.122 -1.628,0.169 -1.622,0.146 -3.252,0.217 -4.88,0.217 -0.007,-0.051 -0.019,-0.106 -0.026,-0.165 -0.025,-0.198 -0.038,-0.404 -0.038,-0.404 0,0 -0.079,0.189 -0.142,0.388 -0.021,0.063 -0.041,0.125 -0.057,0.182 -2.121,-0.005 -4.239,-0.133 -6.346,-0.374 l 0.235,-0.642 -0.518,0.608 c -1.572,-0.188 -3.138,-0.439 -4.688,-0.755 -0.705,-0.143 -1.406,-0.299 -2.108,-0.468 l 0.353,-0.657 -0.724,0.565 c -1.853,-0.456 -3.68,-1 -5.477,-1.637 -0.507,-0.18 -1.009,-0.368 -1.511,-0.563 l 0.796,-0.598 -1.224,0.432 c -0.637,-0.249 -1.271,-0.515 -1.896,-0.792 -0.938,-0.414 -1.877,-0.857 -2.778,-1.339 0.145,-0.024 0.292,-0.048 0.442,-0.071 0.613,-0.094 1.23,-0.165 1.393,-0.184 0.026,-0.002 0.045,-0.005 0.045,-0.005 h -0.004 0.004 c 0,0 -0.722,-0.074 -1.449,-0.116 -0.245,-0.014 -0.486,-0.025 -0.701,-0.033 1.131,-1.283 2.34,-2.503 3.607,-3.667 0.277,-0.021 0.804,-0.063 1.333,-0.073 0.77,-0.023 1.547,0.014 1.547,0.014 0,0 -0.751,-0.189 -1.526,-0.318 -0.279,-0.047 -0.558,-0.089 -0.804,-0.123 0.062,-0.056 0.121,-0.112 0.183,-0.168 1.368,-1.215 2.79,-2.368 4.249,-3.476 0.248,0.016 0.738,0.051 1.233,0.122 0.702,0.096 1.398,0.261 1.398,0.261 0,0 -0.646,-0.309 -1.324,-0.554 -0.258,-0.096 -0.518,-0.182 -0.742,-0.253 0.195,-0.146 0.388,-0.295 0.585,-0.439 1.474,-1.08 2.98,-2.115 4.513,-3.116 0.233,0.068 0.586,0.176 0.939,0.308 0.601,0.217 1.188,0.493 1.188,0.493 0,0 -0.504,-0.403 -1.052,-0.766 -0.195,-0.131 -0.397,-0.255 -0.572,-0.361 1.698,-1.097 3.422,-2.149 5.173,-3.168 0.148,0.086 0.484,0.277 0.81,0.494 0.441,0.283 0.862,0.603 0.862,0.603 0,0 -0.313,-0.425 -0.661,-0.831 -0.174,-0.211 -0.362,-0.41 -0.501,-0.559 0.33,-0.191 0.661,-0.384 0.995,-0.57 1.334,-0.754 2.683,-1.483 4.038,-2.198 0.142,0.133 0.363,0.342 0.579,0.565 0.356,0.365 0.694,0.751 0.694,0.751 0,0 -0.209,-0.468 -0.448,-0.927 -0.121,-0.237 -0.249,-0.469 -0.349,-0.641 1.244,-0.654 2.49,-1.291 3.75,-1.914 0.133,0.133 0.351,0.351 0.563,0.577 0.342,0.363 0.66,0.753 0.66,0.753 0,0 -0.188,-0.468 -0.411,-0.924 -0.112,-0.241 -0.236,-0.479 -0.329,-0.65 1.203,-0.591 2.408,-1.174 3.621,-1.739 0.065,-0.032 0.133,-0.061 0.199,-0.091 0.136,0.139 0.367,0.381 0.59,0.643 0.341,0.394 0.654,0.813 0.654,0.813 0,0 -0.181,-0.492 -0.398,-0.977 -0.119,-0.267 -0.248,-0.527 -0.342,-0.712 1.289,-0.595 2.582,-1.176 3.881,-1.744 0.13,0.144 0.367,0.414 0.596,0.702 0.337,0.419 0.642,0.867 0.642,0.867 0,0 -0.169,-0.515 -0.378,-1.021 -0.119,-0.292 -0.253,-0.58 -0.347,-0.771 0.418,-0.183 0.832,-0.368 1.252,-0.547 0.887,-0.379 1.78,-0.747 2.674,-1.113 0.124,0.15 0.373,0.456 0.607,0.785 0.329,0.452 0.623,0.939 0.623,0.939 0,0 -0.152,-0.547 -0.356,-1.084 -0.12,-0.332 -0.261,-0.655 -0.35,-0.856 0.005,-0.005 0.01,-0.005 0.012,-0.006 1.073,-0.434 2.16,-0.864 3.232,-1.262 l 0,0 0.231,-0.082 c -0.034,0.041 -0.048,0.073 -0.048,0.073 0,0 0.354,0.458 0.667,0.956 0.317,0.491 0.587,1.019 0.587,1.019 0,0 -0.126,-0.578 -0.312,-1.148 -0.147,-0.471 -0.333,-0.927 -0.394,-1.073 l 0.303,-0.109 -1.088,-0.095 -1.663,-0.145 c 0.184,-0.09 0.383,-0.189 0.59,-0.28 0.148,-0.069 0.295,-0.129 0.437,-0.189 m -4.172,-0.476 0.144,0.012 1.404,0.146 c 0.665,0.063 1.333,0.148 1.996,0.237 -0.71,0.167 -1.381,0.392 -1.381,0.392 0,0 -0.009,0.031 -0.014,0.07 l -0.531,-0.048 c -1.048,-0.065 -2.093,-0.146 -3.144,-0.197 0.284,-0.149 0.634,-0.306 1.004,-0.439 0.177,-0.062 0.349,-0.121 0.522,-0.173 m -4.084,-0.282 c 0.938,0.063 1.88,0.095 2.819,0.182 l 0.414,0.032 c -0.398,0.09 -0.779,0.198 -1.074,0.315 -0.354,0.135 -0.589,0.27 -0.589,0.27 0,0 -0.006,0.019 -0.01,0.048 -0.756,-0.035 -1.509,-0.074 -2.268,-0.081 -0.411,-0.012 -0.827,-0.021 -1.241,-0.03 0.229,-0.136 0.488,-0.282 0.753,-0.423 0.227,-0.12 0.456,-0.232 0.669,-0.332 0.178,0.006 0.352,0.012 0.527,0.019 m -4.236,-0.114 1.414,0.02 c 0.58,0.009 1.158,0.028 1.739,0.052 -0.075,0.024 -0.151,0.049 -0.229,0.075 -0.886,0.289 -1.735,0.679 -1.735,0.679 0,0 -0.002,0.008 -0.004,0.013 -0.286,-0.003 -0.574,-0.006 -0.863,-0.006 -0.859,-0.009 -1.721,0.006 -2.582,0.022 0.201,-0.134 0.419,-0.274 0.642,-0.415 0.247,-0.155 0.499,-0.304 0.727,-0.435 0.299,-0.005 0.595,-0.006 0.891,-0.005 m -4.235,0.075 c 0.941,-0.023 1.882,-0.068 2.824,-0.068 0.019,0 0.04,0 0.061,0 -0.133,0.054 -0.271,0.107 -0.405,0.165 -0.703,0.29 -1.391,0.607 -1.598,0.705 -0.913,0.024 -1.827,0.072 -2.741,0.104 -0.225,0.017 -0.45,0.028 -0.676,0.043 0.178,-0.122 0.368,-0.253 0.56,-0.381 0.262,-0.182 0.528,-0.355 0.766,-0.506 0.402,-0.02 0.804,-0.041 1.209,-0.062 m -5.638,0.385 c 0.94,-0.081 1.878,-0.169 2.815,-0.225 0.393,-0.028 0.78,-0.051 1.172,-0.074 -0.154,0.07 -0.317,0.141 -0.476,0.217 -0.621,0.284 -1.234,0.58 -1.511,0.714 -0.478,0.029 -0.952,0.062 -1.428,0.105 l -1.6,0.135 -0.417,0.044 c 0.148,-0.106 0.303,-0.219 0.453,-0.33 0.277,-0.202 0.559,-0.397 0.802,-0.565 0.063,-0.007 0.129,-0.015 0.19,-0.021 m -4.209,0.505 c 0.468,-0.063 0.934,-0.133 1.4,-0.187 0.728,-0.098 1.46,-0.176 2.19,-0.252 -0.172,0.082 -0.35,0.17 -0.527,0.26 -0.548,0.274 -1.094,0.55 -1.399,0.706 l -0.079,0.007 c -0.534,0.049 -1.063,0.125 -1.597,0.189 -0.53,0.065 -1.064,0.129 -1.593,0.211 l -0.175,0.024 1.202,-0.871 c 0.192,-0.028 0.386,-0.06 0.578,-0.087 m -4.184,0.695 c 0.928,-0.175 1.854,-0.339 2.785,-0.484 0.137,-0.022 0.271,-0.04 0.407,-0.061 l -1.934,0.979 -0.27,0.037 -1.588,0.262 c -0.538,0.099 -1.073,0.194 -1.609,0.298 l 1.138,-0.817 c 0.36,-0.072 0.714,-0.145 1.071,-0.214 m -2.768,0.576 c 0.412,-0.093 0.828,-0.182 1.241,-0.27 l -1.89,0.965 c -0.114,0.023 -0.228,0.044 -0.34,0.07 -0.528,0.103 -1.051,0.221 -1.574,0.343 -0.524,0.113 -1.045,0.239 -1.567,0.368 -0.035,0.01 -0.071,0.021 -0.106,0.027 l 0.966,-0.708 0.523,-0.134 c 0.914,-0.224 1.826,-0.461 2.747,-0.661 m 5.31,-8.72 c -0.264,0.185 -0.523,0.378 -0.784,0.568 l -0.677,-0.238 0.511,0.358 c -1.3,0.969 -2.535,2.026 -3.692,3.175 l -1.526,-0.063 1.318,0.276 c -0.998,1.01 -1.936,2.082 -2.797,3.218 l -2.131,0.523 1.911,-0.226 c -0.126,0.173 -0.26,0.342 -0.385,0.518 0,0 -0.003,0.007 -0.005,0.008 -0.152,0.221 -0.16,0.493 -0.052,0.717 -0.88,0.257 -1.754,0.535 -2.614,0.854 -0.891,0.326 -1.772,0.69 -2.621,1.125 l 0.004,0.009 c 0.915,-0.255 1.831,-0.49 2.742,-0.733 l 1.698,-0.44 -1.665,0.89 c -0.598,0.157 -1.193,0.32 -1.787,0.491 -1.033,0.297 -2.06,0.621 -3.077,0.964 -1.023,0.343 -2.033,0.716 -3.035,1.115 -0.178,0.072 -0.352,0.144 -0.526,0.216 0.313,-0.378 0.625,-0.757 0.944,-1.125 0.448,-0.519 0.901,-1.036 1.369,-1.538 0.402,-0.448 0.818,-0.879 1.236,-1.313 l 2.868,-0.876 -2.501,0.503 c 0.414,-0.428 0.846,-0.843 1.268,-1.265 0.504,-0.469 0.995,-0.947 1.508,-1.403 1.014,-0.919 2.063,-1.798 3.131,-2.653 l 1.471,-0.022 -1.176,-0.201 c 1.799,-1.407 3.676,-2.711 5.617,-3.914 l 0.949,0.302 -0.701,-0.456 c 1.631,-0.995 3.305,-1.916 5.021,-2.756 l 1.317,1.447 c -1.072,0.6 -2.12,1.244 -3.131,1.945 m 3.402,-2.098 -1.543,-1.32 c 0.965,-0.473 1.941,-0.93 2.931,-1.35 0.405,-0.174 0.816,-0.335 1.226,-0.501 l 0.934,1.434 c -1.209,0.527 -2.392,1.102 -3.548,1.737 m 6.906,-3.052 c -1.042,0.364 -2.073,0.765 -3.09,1.197 l -1.159,-1.334 c 1.515,-0.606 3.051,-1.163 4.607,-1.652 l 0.643,1.457 c -0.334,0.108 -0.671,0.218 -1.001,0.332 m 1.28,-0.425 -0.88,-1.377 c 1.594,-0.499 3.205,-0.93 4.832,-1.304 0.004,0.038 0.01,0.079 0.016,0.129 0.026,0.205 0.065,0.48 0.101,0.756 0.036,0.232 0.067,0.463 0.098,0.654 -1.402,0.325 -2.792,0.707 -4.167,1.142 m 4.451,-1.209 c -0.062,-0.18 -0.132,-0.402 -0.205,-0.626 -0.08,-0.266 -0.163,-0.532 -0.223,-0.729 -0.013,-0.046 -0.024,-0.087 -0.035,-0.127 1.581,-0.364 3.173,-0.672 4.777,-0.921 l 0.029,1.582 c -1.455,0.225 -2.906,0.497 -4.343,0.821 m 9.099,-1.372 c -1.22,0.096 -2.438,0.223 -3.652,0.39 -0.271,0.036 -0.542,0.079 -0.812,0.119 l -0.291,-1.54 c 0.099,-0.017 0.195,-0.036 0.292,-0.053 1.558,-0.229 3.125,-0.403 4.694,-0.525 l -0.231,1.609 z m 4.822,-0.211 c -0.923,0.005 -1.843,0.029 -2.766,0.073 -0.584,0.028 -1.174,0.068 -1.756,0.115 l -0.05,-1.588 c 1.179,-0.092 2.362,-0.158 3.542,-0.184 0.516,-0.016 1.034,-0.019 1.549,-0.017 l -0.519,1.601 z m 16.204,6.098 -2.528,-0.116 c -0.122,-0.024 -0.239,-0.05 -0.357,-0.081 -0.139,-0.036 -0.283,-0.064 -0.42,-0.107 l -0.826,-0.257 c -0.272,-0.099 -0.545,-0.188 -0.813,-0.3 l -0.201,-0.076 c -0.079,-0.033 -0.139,-0.051 -0.21,-0.075 -0.134,-0.05 -0.278,-0.094 -0.43,-0.136 -0.149,-0.045 -0.295,-0.064 -0.442,-0.101 -0.148,-0.02 -0.295,-0.056 -0.445,-0.072 -0.146,-0.017 -0.297,-0.037 -0.446,-0.05 -0.15,-0.018 -0.301,-0.028 -0.452,-0.037 -0.148,-0.011 -0.3,-0.017 -0.45,-0.021 -0.151,-0.006 -0.302,0.004 -0.455,-10e-4 -0.152,-0.005 -0.304,-0.005 -0.458,10e-4 -0.068,0.004 -0.135,0.004 -0.205,0.005 l -0.056,-0.021 -0.14,-0.064 c -0.094,-0.05 -0.188,-0.104 -0.282,-0.167 -0.186,-0.126 -0.371,-0.277 -0.549,-0.438 -0.356,-0.33 -0.693,-0.708 -1.009,-1.106 -0.314,-0.398 -0.615,-0.817 -0.898,-1.249 -0.138,-0.214 -0.276,-0.435 -0.411,-0.656 -0.133,-0.219 -0.266,-0.447 -0.384,-0.665 v -0.212 l -0.351,-0.022 c -0.903,-0.059 -1.789,-0.072 -2.678,-0.074 l 0.228,-1.598 c 0.862,10e-4 1.723,0.018 2.583,0.056 1.383,0.067 2.765,0.168 4.134,0.37 -1.365,-0.229 -2.746,-0.356 -4.13,-0.449 -0.858,-0.054 -1.718,-0.088 -2.581,-0.105 -0.006,-0.099 -0.017,-0.311 -0.039,-0.523 -0.006,-0.049 -0.011,-0.098 -0.015,-0.145 0.098,0.002 0.192,0.004 0.287,0.007 3.712,0.134 7.422,0.647 10.99,1.688 l 0.868,0.771 -0.07,0.174 c -0.082,0.2 -0.196,0.372 -0.323,0.532 -0.126,0.163 -0.264,0.311 -0.417,0.448 -0.15,0.139 -0.311,0.27 -0.484,0.387 -0.173,0.118 -0.353,0.23 -0.564,0.313 l 0.178,-0.123 0,0 c -0.034,0.022 -0.105,0.058 -0.161,0.083 -0.06,0.028 -0.122,0.056 -0.184,0.081 -0.128,0.048 -0.261,0.088 -0.394,0.119 -0.135,0.029 -0.268,0.054 -0.402,0.059 -0.07,0.008 -0.139,0.009 -0.206,0.003 -0.068,-0.003 -0.136,-10e-4 -0.204,-0.017 -0.065,-0.012 -0.137,-0.02 -0.202,-0.037 l -0.201,-0.065 c -0.063,-0.025 -0.124,-0.059 -0.189,-0.091 -0.068,-0.027 -0.122,-0.073 -0.182,-0.116 -0.057,-0.046 -0.124,-0.079 -0.173,-0.136 l -0.158,-0.159 c -0.06,-0.048 -0.098,-0.117 -0.145,-0.176 l -0.134,-0.188 0.08,0.218 c 0.032,0.073 0.053,0.151 0.094,0.217 l 0.118,0.21 c 0.039,0.073 0.1,0.127 0.148,0.192 0.051,0.067 0.1,0.134 0.167,0.184 0.063,0.057 0.124,0.116 0.189,0.168 l 0.214,0.139 c 0.076,0.048 0.153,0.076 0.231,0.115 0.08,0.039 0.162,0.062 0.245,0.09 0.083,0.029 0.168,0.052 0.251,0.066 0.169,0.038 0.345,0.053 0.517,0.063 0.172,0.007 0.348,10e-4 0.519,-0.017 0.086,-0.005 0.174,-0.02 0.261,-0.032 0.091,-0.019 0.168,-0.03 0.278,-0.063 l 0.175,-0.125 c 0.062,-0.216 0.154,-0.409 0.255,-0.593 0.1,-0.185 0.213,-0.356 0.337,-0.52 0.12,-0.165 0.253,-0.321 0.403,-0.461 0.146,-0.142 0.303,-0.274 0.494,-0.374 l 0.226,-0.121 4.181,2.248 0.561,0.809 -1.758,2.522 z" id="path155" inkscape:connector-curvature="0" style="fill:#00000d"/>
    </g>
  </g>
</svg>