<svg xmlns="http://www.w3.org/2000/svg" version="1.1" viewBox="0 0 76.164 18.117" viewport="0 0 1600px 378px">
 <g transform="translate(-5.4451 -52.392)">
  <g transform="matrix(.77998 0 0 .77998 -331.98 -190.71)">
   <path d="m472.85 333.51h13.341v1.3342h-13.341z" fill="#ffb600"/>
   <path d="m487.58 333.51h13.341v1.3342h-13.341z" fill="#00169c"/>
   <path d="m516.84 333.51h13.341v1.3342h-13.341z" fill="#86d800"/>
   <path d="m457.83 333.51h13.341v1.3342h-13.341z" fill="#f60"/>
   <path d="m502.25 333.51h13.341v1.3342h-13.341z" fill="#a7169c"/>
  </g>
  <g transform="translate(-6.0172 4.6782)" fill="#4d4d4d" stroke-width=".33577" aria-label="penlabEc">
   <path d="m31.915 60.436q0.46868 0.27281 1.0003 0.41971 0.53164 0.1469 1.0493 0.1469 0.99332 0 1.7068-0.57361 0.60858-0.48966 0.93036-1.3781 0.2868-0.79046 0.2868-1.7138 0-0.74849-0.16089-1.413-0.16089-0.66454-0.48267-1.1612-0.34276-0.52464-0.86041-0.81144-0.51065-0.2938-1.1962-0.2938-0.79046 0-1.504 0.4407-0.4407 0.27281-0.76947 0.67854v-1.0143l-0.63656 0.1399v9.5065l0.63656 0.06995zm0-4.6868q0-0.01399 0.09094-0.17488 0.09094-0.15389 0.20286-0.2938 0.33577-0.41971 0.76947-0.67854 0.5876-0.34276 1.2521-0.34276 0.39873 0 0.76248 0.20286 0.37075 0.20286 0.65055 0.59459 0.2938 0.40572 0.45469 0.98632 0.16089 0.57361 0.16089 1.2941 0 0.72051-0.19587 1.3571-0.23784 0.76248-0.69952 1.1892-0.55262 0.51764-1.3641 0.51764-0.4337 0-0.81144-0.09793-0.75548-0.18887-1.2731-0.51764z"/>
   <path d="m43.688 56.889q0.06296-0.36375 0.06296-0.67854 0-1.3781-0.8814-2.0286-0.71351-0.51765-1.9657-0.51765-1.469 0-2.2315 0.83243-0.79046 0.86741-0.79046 2.6442 0 1.0563 0.16788 1.7908 0.16788 0.7275 0.52464 1.1822 0.35676 0.45469 0.93736 0.67154 0.5876 0.21685 1.434 0.21685 0.7275 0 1.525-0.24483 0.65055-0.18887 1.0493-0.42671l-0.18887-0.53164q-0.47567 0.20986-1.0213 0.37774-0.7345 0.22385-1.3711 0.22385-0.5806 0-1.0213-0.1469-0.4407-0.1469-0.74149-0.48267-0.65755-0.7345-0.65755-2.4413l5.1065-0.19586zm-5.1415-0.16089q0.11892-1.3011 0.67154-1.8887 0.55262-0.5806 1.6089-0.5806 0.63656 0 1.0283 0.10493 0.61558 0.16788 0.93736 0.62257 0.30779 0.4407 0.30779 1.2032 0 0.23784-0.01399 0.37075z"/>
   <path d="m51.014 56.694q0-0.70652-0.09793-1.2382-0.09094-0.53863-0.33577-0.92337-0.27281-0.42671-0.75548-0.65055-0.47567-0.22385-1.2242-0.22385-0.55262 0-0.98632 0.17488-0.44769 0.17488-0.79745 0.40572-0.34976 0.22385-0.64356 0.53164v-1.0003l-0.63656 0.13291v6.9253h0.63656v-5.3303q0.24483-0.32878 0.63656-0.61558 0.37774-0.27281 0.77647-0.42671 0.49666-0.19587 1.0423-0.19587 0.51065 0 0.84642 0.1539 0.34276 0.15389 0.54563 0.46868 0.18887 0.30079 0.27281 0.74849 0.08394 0.4407 0.08394 1.0563v1.7418q0 0.71351 0.06296 1.1402 0.09793 0.65056 0.39173 1.0003 0.36375 0.4337 1.0283 0.4337 0.33577 0 0.55962-0.09094 0.44769-0.17488 0.68553-0.51764l-0.24483-0.4337q-0.19587 0.20986-0.41971 0.32878-0.21685 0.11192-0.54563 0.11192-0.25882 0-0.42671-0.09793-0.16089-0.10493-0.25882-0.33577-0.10493-0.22385-0.1469-0.60159-0.04197-0.37774-0.04897-0.97933z"/>
   <path d="m54.301 51.139q0 2.3574 7e-3 3.5256v3.7774q0 0.56661 0.04197 0.94435 0.09094 0.7275 0.37075 1.0913 0.35676 0.47568 1.0703 0.47568 0.47568 0 0.81844-0.1469 0.32178-0.1399 0.70652-0.48966l-0.24483-0.4337q-0.25882 0.21685-0.5806 0.36375-0.32178 0.1399-0.65755 0.1399-0.27281 0-0.4407-0.10493-0.16788-0.11192-0.26582-0.35676-0.09793-0.24483-0.1399-0.65755-0.04197-0.41272-0.04197-1.0493v-7.226z"/>
   <path d="m62.774 53.763v0.46168q-0.46868-0.27281-1.0003-0.41971-0.53164-0.1469-1.0493-0.1469-1.0003 0-1.6998 0.56661-0.61558 0.49666-0.93736 1.3851-0.2868 0.79046-0.2868 1.7138 0 0.74849 0.16089 1.413 0.16089 0.66454 0.48267 1.1542 0.34276 0.53164 0.85342 0.82543 0.51765 0.2868 1.2032 0.2868 0.83243 0 1.455-0.48966 0.23784-0.18188 0.42671-0.39873 0.18887-0.22385 0.44769-0.57361 0.09094 0.65755 0.39173 1.0213 0.34976 0.4407 1.0353 0.4407 0.45469 0 0.80445-0.16089 0.34976-0.16089 0.72051-0.51764l-0.24483-0.4337q-0.25882 0.21685-0.5876 0.36375-0.32178 0.1469-0.65755 0.1469-0.27281 0-0.4407-0.10493-0.16089-0.10493-0.25882-0.35676-0.09793-0.24483-0.1399-0.65055-0.04197-0.40572-0.04197-1.0633v-4.323zm0 4.9386q-0.37075 0.70652-0.95135 1.1752-0.65056 0.52464-1.3711 0.52464-0.51065 0-0.89539-0.23784-0.37774-0.24483-0.63656-0.67854-0.24483-0.41272-0.37075-0.96534-0.11892-0.55262-0.11892-1.1962 0-0.72051 0.19587-1.3571 0.23084-0.76248 0.69952-1.1962 0.55962-0.51065 1.3641-0.51065 0.62957 0 1.0982 0.1469 0.52464 0.16089 0.98632 0.46868z"/>
   <path d="m67.433 60.828v-0.39173q0.25183 0.16089 0.55962 0.2868 0.71351 0.27981 1.49 0.27981 0.99332 0 1.7068-0.57361 0.60858-0.48966 0.93036-1.3781 0.2868-0.79046 0.2868-1.7138v-0.23084q0-0.07695-0.01399-0.23084-0.02098-0.2938-0.06296-0.56661-0.18887-1.1892-0.81844-1.8817-0.69952-0.76947-1.8048-0.76947-0.79046 0-1.504 0.4407-0.4407 0.27281-0.76947 0.67854v-3.7354l-0.63656 0.10493v9.6814zm0-5.0785q0.10493-0.2938 0.34976-0.56661 0.25183-0.27281 0.5806-0.48267 0.32178-0.20986 0.67854-0.32178 0.36375-0.11892 0.70652-0.11892 0.39873 0 0.76248 0.20286 0.37075 0.20286 0.65056 0.59459 0.2938 0.40572 0.45469 0.98632 0.16089 0.57361 0.16089 1.2941 0 0.71351-0.21685 1.3711-0.24483 0.76248-0.71351 1.1892-0.55262 0.50366-1.3291 0.50366-0.49666 0-0.88839-0.10493-0.39873-0.10493-0.69253-0.23084-0.2868-0.13291-0.50366-0.31478z"/>
   <path d="m74.519 51.776v9.0518h5.9529v-0.57361h-5.3164v-3.9943h4.351l0.08394-0.56661h-4.435v-3.9173h5.1485l0.08394-0.57361h-5.9249z"/>
   <path d="m87.592 56.253q0-0.94435-0.51065-1.5809-0.41272-0.51764-1.1472-0.79745-0.57361-0.21685-1.2102-0.21685-1.399 0-2.1405 0.74149-0.83942 0.83942-0.83942 2.6302v0.57361q0 1.469 0.53863 2.2944 0.44769 0.67854 1.2032 0.93036 0.52464 0.17488 1.2312 0.17488 0.65056 0 1.1892-0.18188 0.53863-0.18887 0.92337-0.53863 0.38474-0.35676 0.5876-0.86041 0.20986-0.50366 0.20986-1.1192l-0.60159 7e-3q-0.06296 0.48267-0.20286 0.85342-0.1399 0.37075-0.39173 0.63656-0.5806 0.60159-1.7068 0.60159-0.69252 0-1.1542-0.20986-0.45469-0.20986-0.72051-0.61558-0.25183-0.38474-0.36375-0.93736-0.10493-0.55962-0.10493-1.3151 0-0.69252 0.08394-1.2242 0.09094-0.53164 0.32178-0.92337 0.25882-0.4407 0.72051-0.67854 0.46868-0.23784 1.2102-0.23784 1.0633 0 1.6299 0.52464 0.51065 0.48267 0.65755 1.469z"/>
  </g>
  <g transform="translate(-6.0172 25.845)" fill="#4d4d4d">
   <path d="m21.117 26.894c-0.03486-0.0021-0.05595 0-0.05966 0.0033-0.01011 0.01011 0.04548 0.21617 0.12374 0.45787 0.12902 0.39864 0.13761 0.4466 0.09192 0.51634-0.02772 0.04227-0.41363 0.42068-0.85774 0.84079-1.6217 1.5341-1.6606 1.5668-1.8005 1.5224-0.09148-0.02906-0.11703-0.08523-0.69328-1.52-0.45864-1.1419-0.5049-1.241-0.57074-1.2205-0.1548 0.04823-1.1327 0.47302-1.1487 0.49898-0.0093 0.01506 0.11629 0.26168 0.27932 0.54777 0.16303 0.28609 0.30549 0.57552 0.31641 0.6433 0.01713 0.10566 0.0074 0.13164-0.06973 0.18218-0.04949 0.03244-0.14652 0.06092-0.21564 0.06249-0.11381 0.0033-0.15255-0.02429-0.41032-0.29022-0.15657-0.16155-0.35884-0.37722-0.44902-0.47964l-0.16363-0.18623-0.45306 0.33818-0.45263 0.33857 0.19991 0.21283c0.11 0.11701 0.45203 0.47834 0.76018 0.80332 0.30813 0.32495 0.6577 0.69947 0.77671 0.83192 0.22965 0.25559 0.3751 0.49634 0.32728 0.54213-0.05136 0.04922-3.1958 1.4815-3.3599 1.5304-0.07722 0.02301-0.1262 0.01218-0.22573-0.0504-0.16076-0.10092-0.78718-0.43854-0.81378-0.43854-0.03083 0-0.22847 0.53706-0.30592 0.83113-0.07722 0.29325-0.19075 1.1197-0.22694 1.6538l-0.02297 0.34784 0.6038-0.0097c0.33217-0.0054 1.5404-0.03151 2.6852-0.05803 2.1102-0.04889 2.1388-0.05083 2.1411-0.17009 0-0.01651-0.08183-0.02295-0.18218-0.01445-0.1634 0.01362-2.964-0.07178-4.3277-0.13222-0.4555-0.02022-0.54312-0.0336-0.6187-0.09309-0.06201-0.04872-0.0856-0.09623-0.0778-0.16002 0.01733-0.14885 0.12997-0.17818 0.68843-0.17896 0.27718 0 0.56116-0.01073 0.6312-0.02217l0.12737-0.02097 0.08224-0.33091c0.10387-0.41903 0.12931-0.43874 0.4627-0.35954 0.27602 0.06556 0.25862 0.02414 0.21041 0.499l-0.02741 0.26923h0.51995l0.0653-0.26923 0.06571-0.26966 0.24345 0.0025c0.13381 0.0021 0.28052 0.02243 0.32606 0.04716 0.0791 0.0429 0.08205 0.05747 0.06449 0.3148l-0.01857 0.26925 0.37002 0.02177c0.20348 0.01176 0.56353 0.03155 0.80049 0.04433l0.43088 0.02338-0.01733-0.08344c-0.0097-0.04588-0.12273-0.41974-0.25111-0.83072-0.12838-0.41096-0.2418-0.81888-0.25233-0.90648-0.01692-0.14349-0.0093-0.16673 0.077-0.2346 0.12529-0.09875 0.27658-0.09664 0.37807 0.0047 0.05135 0.05132 0.15263 0.29701 0.28134 0.68319 0.20043 0.60142 0.20111 0.60314 0.25352 0.50222 0.14698-0.28291 0.71734-0.88758 1.1197-1.187 0.44772-0.33322 0.99557-0.5263 1.5933-0.56147l0.35993-0.02097-0.32204-0.36356c-0.36728-0.41495-0.62355-0.75224-0.62355-0.82024 0-0.02588 0.08376-0.07295 0.18862-0.10601 0.23582-0.07433 0.2036-0.09412 0.85452 0.51471 0.27169 0.25412 0.50375 0.46611 0.51592 0.47079 0.01692 0.0064 0.48565-1.0056 0.58202-1.2568 0.01135-0.02951-0.11026-0.09353-0.3668-0.19226-0.21116-0.08127-0.38412-0.16124-0.38412-0.17816 0-0.07683 0.22816-0.62315 0.25998-0.62274 0.0196 0 0.20466 0.05403 0.41152 0.11932l0.37646 0.11889 0.10482-0.23217c0.16867-0.37272 0.17356-0.38894 0.11365-0.38894-0.08998 0-0.75849-0.17325-0.79-0.20476-0.01651-0.01651 0.04134-0.17052 0.12979-0.34664 0.17921-0.35681 0.15794-0.34701 0.54333-0.25998 0.14066 0.03151 0.25982 0.04361 0.26684 0.02621 0.27103-0.69856 0.38418-0.93459 0.44578-0.93069 0.12999 0.0087 0.44596 0.10737 0.45789 0.1431 0.0066 0.01981-0.38859 1.0796-0.87829 2.3547-0.75944 1.9774-0.92311 2.4359-0.83716 2.3434 0.02456-0.02642 0.57542-1.1393 1.2914-2.6082 0.67338-1.3816 1.0234-2.1382 1.0234-2.2112 0-0.08682-0.66711-0.32852-1.2624-0.45748-0.32468-0.07035-1.2417-0.19015-1.4857-0.19913z"/>
   <path d="m24.338 27.848c-0.01073 0.01073-0.74171 1.5656-1.6163 3.4382-0.64053 1.3717-0.68975 1.4854-0.65417 1.5115 0.03354 0.0245 0.04321 0.02002 0.07495-0.03184 0.02002-0.03281 0.43366-0.79566 0.91901-1.6953 1.168-2.1651 1.4172-2.614 1.4978-2.7005 0.05774-0.06202 0.08191-0.07256 0.16726-0.07256 0.08366 0 0.10607 0.0091 0.13705 0.05644 0.06075 0.09272 0.01135 0.24321-0.26481 0.81217-0.13841 0.2851-0.24816 0.52666-0.24426 0.53648 0.0039 0.0099 0.08032 0.07951 0.1697 0.15478 0.28141 0.23714 0.36839 0.32895 0.36839 0.39018 0 0.0377-0.05349 0.12097-0.16324 0.25472l-0.16324 0.19913-0.13464-0.08344c-0.07415-0.04579-0.20808-0.12884-0.29746-0.18462l-0.16243-0.10155-0.09309 0.19789c-0.14372 0.3059-0.14495 0.29336 0.04996 0.44458 0.09142 0.07095 0.18154 0.14093 0.20032 0.15558 0.02895 0.02258 0.03031 0.03973 0.0089 0.11125-0.03448 0.11511-0.25375 0.41125-0.31599 0.42686-0.05653 0.01424-0.13078-0.01548-0.35269-0.14107l-0.156-0.08828-0.08463 0.14632c-0.07815 0.13484-0.39058 0.69635-0.60702 1.0915-0.04976 0.09082-0.09029 0.17424-0.09029 0.18501 0 0.01073 0.40207 0.077 0.89358 0.14712 0.49155 0.0701 0.92528 0.13996 0.96375 0.15517 0.03847 0.01527 0.08963 0.05968 0.11365 0.09916 0.09582 0.15711 0.07419 0.2877-0.06247 0.37968-0.10178 0.06849-0.26836 0.06552-0.88151-0.0161-0.27162-0.0362-0.5055-0.06278-0.51956-0.05966-0.01527 0.0037 0.02111 0.08472 0.09029 0.20032 0.20848 0.34833 0.40156 0.90159 0.48652 1.395 0.05217 0.30345 0.05694 0.8073 0.0097 1.0323-0.04416 0.21006-0.19673 0.6518-0.29422 0.85167-0.0447 0.09165-0.08013 0.16854-0.0778 0.17009 0.0021 0.0021 0.25732-0.06934 0.5671-0.158 0.3098-0.08866 0.62776-0.1671 0.70659-0.17411 0.12941-0.01176 0.14795-0.0085 0.19225 0.03587 0.04369 0.04365 0.04782 0.06319 0.03587 0.17735-0.0074 0.0705-0.02328 0.1464-0.03506 0.16848-0.02458 0.04594-0.15125 0.10065-0.88593 0.3837-0.2903 0.11185-0.54661 0.21349-0.56954 0.22573-0.03845 0.02064-0.03007 0.03634 0.1048 0.19991 0.23545 0.2856 0.7369 0.87096 0.76906 0.89765 0.02342 0.0194 0.08942-0.03151 0.3176-0.24506 0.15831-0.14817 0.30091-0.26925 0.31721-0.26925 0.03009 0 0.29146 0.27777 0.36236 0.38533 0.06798 0.10306 0.05097 0.14048-0.18299 0.39862-0.31381 0.34627-0.29247 0.30664-0.22048 0.40106 0.10001 0.13111 0.33574 0.3966 0.35227 0.3966 0.0085 0 0.11716-0.12182 0.24145-0.27045 0.14836-0.17742 0.24853-0.27839 0.29181-0.29383 0.06344-0.02268 0.07021-0.01878 0.18179 0.10236 0.06381 0.06926 0.15977 0.18637 0.21281 0.2604l0.09633 0.13462-0.17855 0.23378c-0.09817 0.12857-0.18656 0.24488-0.19669 0.25838-0.01176 0.01568 0.04247 0.09349 0.15073 0.21644 0.42677 0.48474 0.48208 0.55478 0.48208 0.61267 0 0.06835-0.18972 0.26694-0.29263 0.30632-0.06391 0.02445-0.06812 0.02126-0.25716-0.17775-0.23778-0.25037-3.0709-3.329-3.1016-3.3704-0.02235-0.03019-0.09673-0.01734-0.09673 0.01651 0 0.02685 2.6451 3.4988 2.9746 3.9045 0.09433 0.11612 0.1971 0.23004 0.22855 0.25352 0.03143 0.02355 0.06666 0.0429 0.07861 0.04313 0.04945 0.0021 0.32672-0.23281 0.53246-0.44943 0.25128-0.26459 0.5702-0.6796 0.89078-1.1588 0.21617-0.3232 0.43249-0.66996 0.4232-0.67877-0.0025-0.0025-0.1949-0.03048-0.42725-0.06206-0.23235-0.03164-0.4489-0.06773-0.48125-0.08021-0.06969-0.02689-0.09204-0.08104-0.26362-0.63847-0.38954-1.2658-0.77186-2.6081-0.77186-2.711 0-0.17861 0.06406-0.19935 0.54172-0.17533 0.45876 0.02305 2.4002 0.14658 2.4643 0.1568 0.02681 0.0047 0.11536 0.0047 0.11769 0.0033 6e-3 -0.0064 0.03009-1.3658 0.0254-1.3728-0.0033-0.0045-0.25386 0.0087-0.55703 0.02941-0.65807 0.04517-0.81764 0.0401-0.88636-0.0286-0.05873-0.05855-0.06084-0.19793-0.0047-0.31601 0.05021-0.10581 0.15544-0.15216 0.78839-0.34744 0.29078-0.08971 0.60146-0.19277 0.6038-0.19589 0.0023-0.0031-0.03446-0.261-0.1165-0.56025l-0.1451-0.52965-0.11043 0.03145c-0.06077 0.01734-0.54434 0.17186-1.0746 0.34342-1.921 0.62144-1.8473 0.6128-1.8597 0.22732-0.0039-0.12498 0.02002-0.96847 0.0532-1.8743l0.06047-1.6469 0.47199-0.33252c0.25976-0.18303 0.4724-0.33999 0.4724-0.34866 0-0.02827-0.3193-0.37706-0.44822-0.48972-0.23254-0.20317-0.55534-0.44584-0.86176-0.64773-0.41-0.27014-0.97588-0.59245-0.9992-0.56913z"/>
   <path d="m17.223 35.81-0.14632 0.01445c-0.29511 0.02949-4.083 0.47063-4.5788 0.53326-0.51861 0.0655-0.67436 0.0902-0.82428 0.13059l-0.08343 0.02219v0.13783c0 0.46524 0.2934 1.3239 0.86298 2.5256 0.16978 0.35816 0.13395 0.35529 0.3958 0.03063 0.35112-0.43528 0.42353-0.50744 0.5111-0.50744 0.10601 0 1.4232 0.32654 2.8928 0.71705 0.63562 0.16889 0.68843 0.19516 0.68843 0.34462 0 0.09177-0.04249 0.15699-1.0927 1.6574-0.36699 0.5243-0.67167 0.96336-0.67636 0.97584-0.0068 0.01775 0.85491 0.64742 1.1222 0.81982l0.05723 0.03667 0.29705-0.58727c0.32338-0.63933 0.40642-0.75775 0.52924-0.75775 0.0525 0 0.09396 0.02311 0.1697 0.09472 0.09613 0.0907 0.10112 0.10126 0.10962 0.23417 0.0091 0.14326-0.04872 0.39712-0.24184 1.0637-0.0705 0.24329-0.07206 0.25606-0.03384 0.27652 0.11668 0.06245 1.0856 0.43226 1.1036 0.4212 0.01156-7e-3 0.02138-0.0272 0.02138-0.04474s0.0686-0.32181 0.15276-0.67594c0.46545-1.9583 0.61385-2.4542 0.74407-2.4869 0.06649-0.01672 0.12731 0.01589 0.51108 0.27208 0.30204 0.20171 2.3721 1.5567 2.6675 1.7461l0.14349 0.0919 0.01445 0.25635c0.03238 0.57493 0.06063 0.97233 0.07054 0.98833 0.02904 0.04705 0.70438-0.1258 1.098-0.28093 0.67623-0.26653 1.7757-0.85179 1.7332-0.92262-0.12855-0.21415-3.0439-4.6385-3.1121-4.7227-0.03327-0.04111-0.09186-0.05009-0.11206-0.01734-0.01445 0.02338 0.06014 0.15558 1.3797 2.4494 1.371 2.3833 1.289 2.2277 1.2491 2.3724-0.03038 0.11002-0.10599 0.15379-0.21161 0.12213-0.04548-0.01362-0.10616-0.04854-0.13462-0.07739-0.02846-0.02887-0.2028-0.29199-0.38736-0.58485-0.18458-0.29286-0.34435-0.53246-0.35549-0.53246-0.01114 0-0.15255 0.05011-0.3144 0.11165-0.18505 0.07039-0.33046 0.11251-0.39177 0.11408-0.09103 0.0021-0.10003-0.0035-0.13544-0.07578-0.02084-0.04262-0.05933-0.16116-0.08585-0.26362-0.04804-0.18557-0.04823-0.18658-0.0056-0.23378 0.02351-0.02606 0.16687-0.11002 0.31882-0.18621l0.27649-0.13825-0.11969-0.18542c-0.06571-0.10188-0.13503-0.20912-0.15397-0.23821-0.01899-0.0291-0.04744-0.05279-0.06288-0.05279-0.01548 0-0.11765 0.03403-0.22692 0.07576-0.2224 0.08488-0.30237 0.09342-0.35229 0.03789-0.05859-0.06517-0.23256-0.41563-0.23256-0.46836 0-0.06726 0.04992-0.10878 0.3031-0.25192l0.21403-0.12091-0.10479-0.19871c-0.193-0.36544-0.7264-1.305-0.74083-1.3051-0.0078-6.2e-5 -0.2979 0.34024-0.64491 0.75614s-0.6576 0.77356-0.69006 0.79485c-0.07873 0.05172-0.23584 0.05046-0.31641-0.0025-0.12027-0.07896-0.15383-0.25237-0.07778-0.40147 0.02408-0.04722 0.21906-0.30512 0.43329-0.57315 0.21423-0.26805 0.38936-0.49194 0.38936-0.4982 0-0.0056-0.08515-0.01073-0.18945-0.01094-0.58099 0-1.3077-0.17632-1.9226-0.46472-0.436-0.20451-0.93682-0.68692-1.2092-1.1649l-0.09433-0.16565-0.11567 0.41557c-0.13878 0.49939-0.28308 0.93997-0.33979 1.0375-0.03358 0.05768-0.05704 0.07274-0.12335 0.07819-0.0731 0.0062-0.0934-0.0047-0.18862-0.09997-0.14454-0.14456-0.14964-0.04404 0.05884-1.1487 0.06593-0.34951 0.11676-0.63898 0.11286-0.64288-0.01568-0.01527-1.0549 0.1543-1.4047 0.22934-0.06422 0.01383-0.10843 0.03492-0.10843 0.05201 0 0.01589 0.02951 0.18332 0.06569 0.37202 0.03611 0.1887 0.06026 0.36494 0.05403 0.39138-0.0064 0.02644-0.03362 0.05964-0.06007 0.07376-0.08432 0.04515-0.34837 0.1048-0.46553 0.10521-0.09406 0-0.11835-0.0078-0.1451-0.04877-0.01775-0.02708-0.07328-0.20501-0.12335-0.39543-0.05007-0.1904-0.09815-0.3543-0.1064-0.36395-0.0083-0.0097-0.16759 0.0072-0.3543 0.03789-0.1867 0.03056-0.34231 0.05562-0.34542 0.05562-0.0033 0 0.05052 0.16724 0.11969 0.37163 0.06916 0.20439 0.12576 0.39896 0.12576 0.43249 0 0.07823-0.03329 0.09483-0.27208 0.13664-0.25134 0.04396-0.39606 0.04381-0.44498 0-0.02093-0.01899-0.08866-0.16014-0.15034-0.31397-0.06179-0.15385-0.11887-0.27973-0.12737-0.27973-0.0085 0-0.20916 0.039-0.4458 0.08665-0.45096 0.09087-0.59736 0.10465-0.63401 0.05966-0.0317-0.03892-0.11328-0.31385-0.11328-0.3817 0-0.04994 0.0163-0.06371 0.12456-0.10521 0.11825-0.04536 0.70799-0.17537 2.5724-0.56712 0.86836-0.18245 2.4111-0.50059 2.4277-0.50059 5e-3 0 0.0097-0.02582 0.0097-0.05725z"/>
   <path d="m20.697 26.549c-0.85469-0.0176-1.7184 0.08848-2.5684 0.32617-2.5259 0.70636-4.6527 2.4871-5.7617 4.8301-0.19385 0.40953-0.53498 1.3427-0.63477 1.7461-0.4177 1.6883-0.35014 3.42 0.19727 5.0957 0.15313 0.4688 0.50863 1.2597 0.75976 1.6875 0.88852 1.5136 2.0601 2.6215 3.6641 3.4746 8.48e-4 4.51e-4 0.0011 0.0015 2e-3 2e-3l0.27734 0.14648 0.01367-0.03711c0.45306 0.19898 1.1929 0.48759 1.5137 0.57031 0.54097 0.13955 1.2635 0.24224 1.8594 0.26562 0.78906 0.03098 1.4998-0.03039 2.2734-0.19922 2.5526-0.55707 4.7872-2.2448 6.0332-4.5566 0.8705-1.6151 1.232-3.4064 1.0566-5.2305-0.17166-1.7854-0.85936-3.474-1.9805-4.8516-1.671-2.0533-4.141-3.2167-6.7051-3.2695zm-0.0098 0.54492c2.4063 0.04931 4.7224 1.1427 6.291 3.0703 1.0525 1.2933 1.6999 2.8772 1.8613 4.5566 0.1653 1.7192-0.17348 3.3973-0.99414 4.9199-1.1692 2.1693-3.2754 3.7611-5.668 4.2832-0.73366 0.1601-1.3888 0.21686-2.1367 0.1875-0.54892-0.02154-1.256-0.12214-1.7441-0.24805-0.22755-0.05869-1.5507-0.56302-1.6855-0.63476-1.5304-0.81346-2.6065-1.8359-3.4492-3.2715-0.21317-0.36313-0.58339-1.1836-0.71289-1.5801-0.51716-1.5831-0.57915-3.204-0.18555-4.7949 0.07303-0.29522 0.44048-1.3105 0.59766-1.6426 1.0393-2.1956 3.0412-3.8755 5.4141-4.5391 0.79795-0.22314 1.61-0.32308 2.4121-0.30664z" color="#000000" color-rendering="auto" dominant-baseline="auto" image-rendering="auto" shape-rendering="auto" solid-color="#000000" stop-color="#000000" style="font-feature-settings:normal;font-variant-alternates:normal;font-variant-caps:normal;font-variant-east-asian:normal;font-variant-ligatures:normal;font-variant-numeric:normal;font-variant-position:normal;font-variation-settings:normal;inline-size:0;isolation:auto;mix-blend-mode:normal;shape-margin:0;shape-padding:0;text-decoration-color:#000000;text-decoration-line:none;text-decoration-style:solid;text-indent:0;text-orientation:mixed;text-transform:none;white-space:normal"/>
   <path d="m22.533 35.427a2.1164 2.1164 0 0 1-2.1164 2.1164 2.1164 2.1164 0 0 1-2.1164-2.1164 2.1164 2.1164 0 0 1 2.1164-2.1164 2.1164 2.1164 0 0 1 2.1164 2.1164"/>
  </g>
 </g>
</svg>